<?xml version="1.0" encoding="utf-8"?>
<!-- Generator: Adobe Illustrator 18.0.0, SVG Export Plug-In . SVG Version: 6.00 Build 0)  -->
<!DOCTYPE svg PUBLIC "-//W3C//DTD SVG 1.0//EN" "http://www.w3.org/TR/2001/REC-SVG-20010904/DTD/svg10.dtd">
<svg version="1.0" id="Layer_1" xmlns="http://www.w3.org/2000/svg" xmlns:xlink="http://www.w3.org/1999/xlink" x="0px" y="0px"
	 viewBox="0 0 276 275.9938965" enable-background="new 0 0 276 275.9938965" xml:space="preserve">
<g>
	<path fill="#D1ECEE" d="M138.053421,0.0000018h-0.0598297h-0.0537262
		C99.948204-0.0061027,65.2767487,15.5053101,40.4120903,40.41819
		C15.4937172,65.2919312-0.0122017,99.9842148,0.0000072,137.9972534
		c-0.0122089,38.0124207,15.4937096,72.7046356,40.4120827,97.5783844
		c24.8646584,24.9129486,59.5422173,40.4182587,97.527771,40.4182587h0.0537262h0.0537109
		c37.9978638,0,72.6631317-15.4992065,97.5345917-40.4182587C260.5063782,210.701889,276.0116882,176.0096741,276,137.9972534
		h-30.2480927h-24.6980896c-0.6916351,3.6211548-1.6097412,7.543808-2.8318481,11.5795288
		c-2.5992889,8.5724792-6.0983582,16.018692-10.4203033,22.1707001c-3.7975769,7.8210907-8.8825836,14.9150696-14.9992523,21.055542
		c-14.1220398,14.0719757-33.3058929,22.6828613-54.8088226,22.6950684
		c-21.4907227-0.012207-40.680069-8.6230927-54.7966156-22.6950684
		c-14.0811386-14.1257019-22.6951332-33.3065033-22.7073402-54.8057709
		c0.012207-21.4998856,8.6262016-40.6867905,22.7073402-54.8063889
		c14.1165466-14.0689316,33.3058929-22.6829224,54.7966156-22.694519
		c21.5029297,0.0115967,40.6867828,8.6255875,54.8088226,22.694519c8.7275391,8.760498,15.3569641,19.4671021,19.1362305,31.4702835
		c5.097229,1.1146088,8.578598,1.4693451,8.6622314,1.4754486c1.4186707,0.1403961,2.5035095,1.3380966,2.5035095,2.7604294
		c0,0.4437256-0.0299988,8.452774-2.0505676,19.1002274h24.6980896H276
		c0.0116882-38.0130386-15.4936218-72.7053223-40.4181061-97.5790634
		C210.7165375,15.5053101,176.045166,0.0000018,138.053421,0.0000018 M217.4412079,121.3259888
		c-0.190979,3.3025055-0.6854401,8.8703766-1.9497681,15.3954315c0.0061035,0.2502747,0.0061035,0.5066681,0.0061035,0.7630463
		c1.3710632-7.0671234,1.8301239-13.0018616,1.9851685-16.1523743
		C217.4711151,121.3259888,217.4589081,121.3259888,217.4412079,121.3259888"/>
	<path d="M74.1233215,72.0044556h-5.3230896v138.4111328c0,1.5950928,1.0609589,2.6621552,2.658493,2.6621552h120.4915924
		v-5.3298035H74.1233215V72.0044556z"/>
	<path d="M187.51474,77.3250961h-14.908905V62.4247398L187.51474,77.3250961z M84.7707062,58.6955299h82.5114288v21.291111
		c0,1.6005859,1.0609589,2.6621475,2.6585846,2.6621475h21.2940674v19.9646149h5.3237V79.9866409L196.29599,79.188179v-0.2624969
		l-0.5365753-0.7990723l-23.952652-23.9556999l-0.7990723-0.5304756h-0.2618866l-0.8050842-0.2679863h-87.83461
		c-1.5981445,0-2.6590958,1.060955-2.6590958,2.661541v143.7348328c0,1.5944824,1.0609512,2.6615295,2.6590958,2.6615295h90.4997253
		v-5.3230743H84.7707062V58.6955299z"/>
	<rect x="122.7324677" y="126.5691071" width="5.3236928" height="5.3236928"/>
	<rect x="112.0917816" y="126.5691071" width="5.3175883" height="5.3236928"/>
	<rect x="101.4444122" y="126.5691071" width="5.3236928" height="5.3236928"/>
	<rect x="96.1213226" y="68.013382" width="5.3230824" height="5.3236928"/>
	<rect x="106.7680817" y="68.013382" width="5.3236928" height="5.3236928"/>
	<rect x="106.7680817" y="78.660141" width="5.3236928" height="5.323626"/>
	<rect x="96.1213226" y="78.660141" width="5.3230824" height="5.323626"/>
	<rect x="117.4093781" y="68.013382" width="21.2935505" height="5.3236928"/>
	<rect x="117.4093781" y="78.660141" width="21.2935505" height="5.323626"/>
	<rect x="96.1213074" y="97.2927399" width="69.2055664" height="5.3206406"/>
	<rect x="96.121315" y="110.5986481" width="73.085556" height="5.3230824"/>
	<rect x="96.1213226" y="142.5365143" width="65.8371277" height="5.3236928"/>
	<rect x="96.1213226" y="155.8515167" width="65.8371277" height="5.3230824"/>
	<rect x="96.1213226" y="169.1598663" width="65.8371277" height="5.3236928"/>
	<rect x="96.1213226" y="182.465744" width="65.8371277" height="5.3236928"/>
	<g>
		<g>
			<path fill="#F9D02A" d="M227.0262451,188.7908783h-45.7767639c-3.2770996,0-5.9337921-2.6565247-5.9337921-5.9337921v-34.4740448
				c0-3.2770996,2.6565247-5.9337921,5.9337921-5.9337921h45.7767639c3.2770996,0,5.9337921,2.6565247,5.9337921,5.9337921
				v34.4740448C232.9600372,186.1341858,230.3035126,188.7908783,227.0262451,188.7908783z"/>
			<path fill="#F9D02A" d="M224.9654846,142.4494171h-8.3310089v-11.1203613
				c0-5.6616592-4.6060486-10.2677002-10.2677002-10.2677002h-4.4579773c-5.6616669,0-10.2677002,4.606041-10.2677002,10.2677002
				v11.1200256h-8.3310089v-11.1200256c0-10.2553711,8.3433228-18.5987091,18.5987091-18.5987091h4.4579773
				c10.2553711,0,18.5987091,8.343338,18.5987091,18.5987091V142.4494171z"/>
		</g>
		<path d="M208.983078,161.9034729c0-2.6828918-2.17099-4.8577423-4.8539886-4.8577423s-4.8634491,2.1748505-4.8634491,4.8577423
			c0,1.7050476,0.8774414,3.2038116,2.20224,4.0707245v8.3027496h5.2993164v-8.3028564
			C208.0921021,165.1071777,208.983078,163.6084137,208.983078,161.9034729z"/>
		<path fill="#010101" d="M227.0242157,140.3670502v-9.0379944c0-11.4036789-9.2536011-20.5814819-20.6574402-20.5814819h-4.4579773
			c-11.4038544,0-20.7057343,9.177803-20.7057343,20.5814819v9.0379944
			c-4.5820618,0.012146-8.1228638,3.6032562-8.1228638,8.0161591v34.4740448c0,4.4199982,3.7487793,8.2204285,8.1691132,8.2204285
			h45.7767639c4.4203339,0,7.9125214-3.8004303,7.9125214-8.2206116v-34.4740295
			C234.9387512,143.9703064,231.3979645,140.3790283,227.0242157,140.3670502z M185.3688202,131.3290558
			c0-9.1067352,7.4332428-16.4160614,16.5401306-16.4160614h4.4579926c9.1069031,0,16.4918518,7.3093262,16.4918518,16.4160614
			v9.1372528h-4.1655884v-9.1372528c0-6.809967-5.5161285-12.250473-12.3262634-12.250473h-4.4579926
			c-6.8099518,0-12.3745422,5.4403381-12.3745422,12.250473v9.1372528h-4.1655884V131.3290558L185.3688202,131.3290558z
			 M193.6998291,140.4663086v-9.1372528c0-4.5131912,3.6959381-8.084877,8.2089539-8.084877h4.4579926
			c4.5131836,0,8.160675,3.5716858,8.160675,8.084877v9.1372528H193.6998291z M230.7731628,182.8570862
			c0,2.1821442-1.7241364,4.0551758-3.8510742,4.0551758h-45.8250427c-2.1269379,0-3.8510895-1.8730316-3.8510895-4.0551758
			v-34.3781586c0-2.1821442,1.7241364-3.8468628,3.8510895-3.8468628h45.8250427
			c2.1269379,0,3.8510895,1.6647186,3.8510895,3.8468628v34.3781586H230.7731628z"/>
		<path d="M204.1416473,159.3426971c-2.1602936,0-3.9388275,1.76297-3.9388275,3.9299469
			c0,1.1680298,0.5525513,2.2625427,1.3946533,3.0098267v4.8131409c0,0.4650421,0.4190979,0.8842163,0.884201,0.8842163h3.368454
			c0.4651184,0,0.7999878-0.4192505,0.7999878-0.8842163v-4.8145752c0.9263306-0.7393646,1.408432-1.8328552,1.408432-3.0084686
			C208.0586243,161.1056671,206.3132019,159.3426971,204.1416473,159.3426971z M204.9659271,170.2956238h-1.6841888v-4.4355316
			c0-0.2841492-0.1222534-0.5491333-0.3600006-0.7046967c-0.6478271-0.4238129-1.0240784-1.1277466-1.0240784-1.8827515
			c0-1.238266,1.0071564-2.2456818,2.2388-2.2456818c1.2427063,0,2.2458191,1.0074158,2.2458191,2.2456818
			c0,0.7666016-0.3840942,1.4704132-1.0142517,1.8827515c-0.2377319,0.1556244-0.4020996,0.4205475-0.4020996,0.7046967"/>
	</g>
</g>
</svg>
