<?xml version="1.0" encoding="utf-8"?>
<!-- Generator: Adobe Illustrator 18.0.0, SVG Export Plug-In . SVG Version: 6.00 Build 0)  -->
<!DOCTYPE svg PUBLIC "-//W3C//DTD SVG 1.0//EN" "http://www.w3.org/TR/2001/REC-SVG-20010904/DTD/svg10.dtd">
<svg version="1.0" id="Capa_1" xmlns="http://www.w3.org/2000/svg" xmlns:xlink="http://www.w3.org/1999/xlink" x="0px" y="0px"
	 viewBox="622 532 80 80" enable-background="new 622 532 80 80" xml:space="preserve">
<path fill="#4FBA6F" d="M662,532c-22.0562744,0-40,17.9437256-40,40s17.9437256,40,40,40s40-17.9437256,40-40
	S684.0562744,532,662,532z M681.3492432,566.5996094l-17.0340576,17.0339966
	c-0.6178589,0.6178589-1.4401245,0.9581909-2.3151855,0.9581909s-1.6972656-0.340332-2.3151855-0.9581909l-17.0340576-17.0339966
	c-0.4199219-0.4200439-0.651123-0.9780884-0.651123-1.5714111c0-0.5935059,0.2312012-1.1515503,0.651123-1.5714722
	c0.420166-0.420105,0.9782104-0.6515503,1.5714722-0.6515503s1.1513062,0.2314453,1.5714111,0.6515503L662,579.6630249
	l16.2063599-16.2062988c0.420105-0.420166,0.9782104-0.6515503,1.5714111-0.6515503s1.1513062,0.2313843,1.5714722,0.6515503
	c0.420105,0.420105,0.6515503,0.9781494,0.6515503,1.5714722
	C682.0007935,565.6213989,681.7693481,566.1794434,681.3492432,566.5996094z"/>
</svg>
