<?xml version="1.0" encoding="utf-8"?>
<!-- Generator: Adobe Illustrator 18.0.0, SVG Export Plug-In . SVG Version: 6.00 Build 0)  -->
<!DOCTYPE svg PUBLIC "-//W3C//DTD SVG 1.0//EN" "http://www.w3.org/TR/2001/REC-SVG-20010904/DTD/svg10.dtd">
<svg version="1.0" id="Layer_1" xmlns="http://www.w3.org/2000/svg" xmlns:xlink="http://www.w3.org/1999/xlink" x="0px" y="0px"
	 viewBox="0 0 792 612" enable-background="new 0 0 792 612" xml:space="preserve">
<path fill="#C6E3C1" d="M396.1184387,0h-0.1055908h-0.1191101C311.6378174,0,234.771347,34.3813362,179.6229553,89.6364746
	c-55.2673187,55.1482086-89.6500092,132.0811768-89.6229401,216.3628235
	c-0.0270691,84.2965393,34.3556213,161.2160034,89.6229401,216.3777161C234.7577972,577.6173096,311.6378174,612,395.8802185,612
	h0.1326294h0.1191101c84.2302246,0,161.1090698-34.3826904,216.2450562-89.6229858
	C667.6578979,467.2153015,702.0256958,390.2958374,702,305.9992981h-67.0720215h-67.0585327
	c-0.0392456,47.6804199-19.1276245,90.2185364-50.3496704,121.5326233
	c-31.3019409,31.1963196-73.8536072,50.2982483-121.5069275,50.3239746
	c-47.6804199-0.0257263-90.2171631-19.127655-121.5325928-50.3239746
	c-31.2098694-31.3140869-50.2969208-73.8522034-50.3375244-121.5326233
	c0.0406036-47.6668701,19.127655-90.2171631,50.3375244-121.5190582
	c31.3154297-31.2099457,73.8521729-50.2969208,121.5325928-50.3375244
	c47.6533203,0.0406036,90.2049866,19.1275787,121.5069275,50.3375244
	c31.2220459,31.3018951,50.3104248,73.8521881,50.3496704,121.5190582h67.0585327H702
	c0.0256958-84.2816467-34.3421021-161.2145996-89.6229858-216.3628235C557.2410278,34.3948708,480.3486328,0,396.1184387,0"/>
<path fill="#ED8B24" d="M218.8027802,284.3471985c3.0929718,0,5.6309662-4.1772766,5.6309662-7.2837219v-22.5102997
	c0-3.1200867-2.5379944-3.9930878-5.6309662-3.9930878h-67.5606689c-3.0929718,0-5.6309662,0.8730011-5.6309662,3.9930878
	v22.5238495c0,3.0928955,2.5379944,7.2701721,5.6309662,7.2701721h45.0368347c1.7705078,0,3.4367828,0.0135193,4.5074768,1.4280396
	l6.7544403,8.1824646v-5.6309509c0-3.1200256,2.5109253-3.9795532,5.6309662-3.9795532H218.8027802z"/>
<path d="M224.4337463,277.0634766c0,3.1064453-2.5379944,7.2837219-5.6309662,7.2837219h-5.6309509
	c-3.1065063,0-5.6309662,0.8595276-5.6309662,3.9795532v5.6309509l-6.7544403-8.1960144
	c-1.0585022-1.4009705-2.7234344-1.4144897-4.495285-1.4144897h-45.0490265c-3.1065063,0-5.6309662-4.1772766-5.6309662-7.2837219
	v-22.5238342c0-3.0930328,2.5244598-3.9795532,5.6309662-3.9795532h67.5606689c3.0929718,0,5.6309662,0.8865204,5.6309662,3.9795532
	V277.0634766z M235.6970215,277.0634766v-22.5238342c0-9.3060455-7.5882568-15.2414856-16.8942413-15.2414856h-67.5606689
	c-9.3195038,0-16.8805237,5.9354401-16.8805237,15.2550201v22.5102997c0,9.3059082,7.5610199,18.5469971,16.8805237,18.5469971
	h42.2335358l15.20224,19.4308472c1.0828857,1.4537659,2.7626953,1.4402161,4.4939423,1.4402161l1.7840424-0.2896729
	c2.3011017-0.7674561,3.8469086-2.9223938,3.8469086-5.3412781v-16.8928833
	C228.1087646,293.9577026,235.6970215,286.3693848,235.6970215,277.0634766"/>
<rect x="201.9221039" y="261.0030212" width="11.2632742" height="11.2619267"/>
<rect x="179.3982544" y="261.0030212" width="11.2619171" height="11.2619267"/>
<rect x="156.8730469" y="261.0030212" width="11.2619171" height="11.2619267"/>
<path d="M527.8436279,380.5932007c0,9.4116211-7.6665649,17.0783691-17.0796814,17.0783691
	c-9.4237366,0-17.090332-7.666748-17.090332-17.0783691c0-9.4250183,7.6665955-17.0917969,17.090332-17.0917969
	C520.177063,363.5014038,527.8436279,371.1681824,527.8436279,380.5932007 M482.2910461,380.5932007
	c0,15.6909485,12.7698364,28.4729614,28.4729004,28.4729614c15.7044373,0,28.4607239-12.7820129,28.4607239-28.4729614
	c0-15.7043762-12.7562866-28.4863586-28.4607239-28.4863586
	C495.0608826,352.106842,482.2910461,364.8888245,482.2910461,380.5932007"/>
<path d="M539.2381592,422.1134644h-56.947113c-9.4250793,0-17.0918274,6.0004883-17.0918274,15.4119873v7.3635559L476.59375,450
	v-12.4745483c0-3.1321411,2.5515442-4.0309753,5.6972961-4.0309753h56.947113c3.1322632,0,5.6973267,0.8988342,5.6973267,4.0309753
	V450l11.3810425-5.1109924v-7.3635559C556.3165283,428.1139526,548.6497803,422.1134644,539.2381592,422.1134644"/>
<path d="M583.8513794,388.5375366h-6.0938721c0,18.5198975-7.4827271,35.2408447-19.6298828,47.375824
	c-12.1349487,12.1485291-28.8572998,19.6298523-47.3758545,19.6298523c-18.5063477,0-35.2286682-7.4813232-47.3758545-19.6298523
	c-12.1350098-12.1349792-19.6163025-28.8559265-19.6163025-47.375824c0-18.519928,7.4812927-35.2273254,19.6163025-47.3758545
	c12.1471863-12.1350098,28.8695068-19.6298523,47.3758545-19.6298523c18.5185547,0,35.2409058,7.4948425,47.3758545,19.6298523
	c12.1471558,12.1485291,19.6298828,28.8559265,19.6298828,47.3758545H583.8513794h6.0938721
	c0-43.7279358-35.4533691-79.1799622-79.1934814-79.1799622c-43.7279053,0-79.1799622,35.4520264-79.1799622,79.1799622
	c0,43.7400818,35.4520569,79.1934509,79.1799622,79.1934509c43.7401123,0,79.1934814-35.4533691,79.1934814-79.1934509H583.8513794z
	"/>
<path fill="#F9D02A" d="M510.7639465,363.5014038c9.4250793,0,17.0796814,7.6532288,17.0796814,17.0782776
	c0,9.4386597-7.6546021,17.0918884-17.0796814,17.0918884c-9.4372559,0-17.090332-7.6532288-17.090332-17.0918884
	C493.6736145,371.1546326,501.3266907,363.5014038,510.7639465,363.5014038"/>
<path d="M298.3400879,380.5932007c0,9.4116211-7.6802979,17.0783691-17.0783081,17.0783691
	c-9.4251099,0-17.1054077-7.666748-17.1054077-17.0783691c0-9.4250183,7.6802979-17.0917969,17.1054077-17.0917969
	C290.65979,363.5014038,298.3400879,371.1681824,298.3400879,380.5932007 M252.7753448,380.5932007
	c0,15.6909485,12.7819977,28.4729614,28.4864349,28.4729614c15.6908569,0,28.4593201-12.7820129,28.4593201-28.4729614
	c0-15.7043762-12.7684631-28.4863586-28.4593201-28.4863586
	C265.5573425,352.106842,252.7753448,364.8888245,252.7753448,380.5932007"/>
<path d="M309.7210999,422.1134644h-56.945755c-9.4250793,0-17.0783234,6.0004883-17.0783234,15.4119873v7.3635559L247.0780487,450
	v-12.4745483c0-3.1321411,2.5515289-4.0309753,5.6972961-4.0309753h56.945755c3.1457825,0,5.6974792,0.8988342,5.6974792,4.0309753
	V450l11.3808594-5.1109924v-7.3635559C326.7994385,428.1139526,319.1462097,422.1134644,309.7210999,422.1134644"/>
<path d="M354.3480225,388.5375366h-6.0940857c0,18.5198975-7.4813232,35.2408447-19.6298523,47.375824
	c-12.1349792,12.1485291-28.855957,19.6298523-47.3758545,19.6298523s-35.2273407-7.4813232-47.3758698-19.6298523
	c-12.1349792-12.1349792-19.629837-28.8559265-19.629837-47.375824c0-18.519928,7.4948578-35.2273254,19.629837-47.3758545
	c12.1485291-12.1350098,28.8559723-19.6298523,47.3758698-19.6298523c18.519928,0,35.2408752,7.4948425,47.3758545,19.6298523
	c12.1485291,12.1485291,19.6298523,28.8559265,19.6298523,47.3758545H354.3480225h6.093689
	c0-43.7279358-35.453186-79.1799622-79.1934814-79.1799622c-43.7279205,0-79.1797638,35.4520264-79.1797638,79.1799622
	c0,43.7400818,35.4518433,79.1934509,79.1797638,79.1934509c43.7402954,0,79.1934814-35.4533691,79.1934814-79.1934509H354.3480225z
	"/>
<path fill="#F9D02A" d="M281.24823,363.5014038c9.4386292,0,17.0783081,7.6532288,17.0783081,17.0782776
	c0,9.4386597-7.639679,17.0918884-17.0783081,17.0918884s-17.0783081-7.6532288-17.0783081-17.0918884
	C264.1699219,371.1546326,271.8096008,363.5014038,281.24823,363.5014038"/>
<path d="M409.1792603,170.2701874c0,9.4250793-7.6545715,17.0783081-17.0794678,17.0783081
	c-9.4117126,0-17.0784912-7.6532288-17.0784912-17.0783081c0-9.4250946,7.6667786-17.0783234,17.0784912-17.0783234
	C401.5246887,153.191864,409.1792603,160.8450928,409.1792603,170.2701874 M363.6402588,170.2701874
	c0,15.7029877,12.7698364,28.4728851,28.4595337,28.4728851c15.7042236,0,28.4862671-12.7698975,28.4862671-28.4728851
	c0-15.704422-12.7820435-28.4729004-28.4862671-28.4729004C376.4100952,141.797287,363.6402588,154.5657654,363.6402588,170.2701874
	"/>
<path d="M420.5860596,211.7903748h-56.9458008c-9.4250793,0-17.0918579,6.0004883-17.0918579,15.4255981v7.3635559
	L357.9429626,238.75v-11.5340271c0-3.1457672,2.5515442-4.0310211,5.6972961-4.0310211h56.9458008
	c3.133728,0,5.6972656,0.8852539,5.6972656,4.0310211V238.75l11.3823547-4.1704712v-7.3635559
	C437.6656799,217.790863,429.9989624,211.7903748,420.5860596,211.7903748"/>
<path d="M465.1992188,178.2279816h-6.0939026c0,18.5062866-7.4813232,35.2273254-19.6161499,47.3758545
	c-12.1473083,12.1349792-28.8696594,19.6162262-47.375824,19.6162262c-18.5187378,0-35.2410583-7.4812469-47.3758545-19.6162262
	c-12.1473694-12.1485291-19.6300354-28.8695679-19.6300354-47.3758545c0-18.5199127,7.482666-35.2408752,19.6300354-47.3758698
	c12.1347961-12.1485138,28.8571167-19.6298447,47.3758545-19.6298447c18.5061646,0,35.2285156,7.4813309,47.375824,19.6298447
	c12.1348267,12.1349945,19.6161499,28.855957,19.6161499,47.3758698H465.1992188h6.0938721
	c0-43.7414551-35.4519958-79.1934891-79.1797485-79.1934891c-43.7402954,0-79.1936646,35.452034-79.1936646,79.1934891
	c0,43.7265472,35.4533691,79.1799469,79.1936646,79.1799469c43.7277527,0,79.1797485-35.4533997,79.1797485-79.1799469H465.1992188z
	"/>
<path fill="#F9D02A" d="M392.1133423,153.191864c9.4248657,0,17.078125,7.639679,17.078125,17.0783234
	c0,9.4386139-7.6532593,17.0783081-17.078125,17.0783081c-9.4374695,0-17.092041-7.6396942-17.092041-17.0783081
	C375.0213013,160.831543,382.6758728,153.191864,392.1133423,153.191864"/>
<polygon points="451.5576477,345.2393494 398.1934814,302.9997253 398.1934814,251.3275604 386.0192566,251.3275604 
	386.0192566,309.0800781 444.2347107,354.9811096 "/>
<polyline points="388.4381409,301.1750793 336.4356995,340.382019 343.7721558,350.1102295 395.7745972,310.9033813 "/>
<path fill="#ED8B24" d="M601.2857056,253.4418945h-62.6431274v-11.3810425h62.6431274V253.4418945z M606.9831543,230.6527405
	h-74.024292c-3.145752,0-5.6972656,0.8987885-5.6972656,4.0323639v22.775589c0,3.1593018,2.5515137,7.3622131,5.6972656,7.3622131
	h5.6837158c3.1593018,0,5.6973267,0.8866272,5.6973267,4.0323792v9.0284729l13.0610352-12.2148438
	c1.0704956-1.0706787,2.524231-0.8460083,4.0172729-0.8460083h45.5649414c3.1469116,0,5.6970825-4.2029114,5.6970825-7.3486633
	v-22.7756042C612.6802368,231.5515289,610.1300659,230.6527405,606.9831543,230.6527405"/>
<path d="M612.6802368,257.4742432c0,3.1322327-2.5501709,7.3622131-5.6970825,7.3622131h-45.5649414
	c-1.493042,0-2.9467773-0.2504272-4.0172729,0.820282l-13.0610352,12.2270203v-9.0284729
	c0-3.145752-2.5380249-4.0188293-5.6973267-4.0188293h-5.6837158c-3.145752,0-5.6972656-4.2299805-5.6972656-7.3622131v-22.7891388
	c0-3.1335754,2.5515137-4.0323639,5.6972656-4.0323639h74.024292c3.1469116,0,5.6970825,0.8987885,5.6970825,4.0323639V257.4742432z
	 M606.9831543,219.271637h-74.024292c-9.4249268,0-17.0783081,6.0019226-17.0783081,15.4134674v22.7891388
	c0,9.4115601,7.6533813,17.0782471,17.0783081,17.0782471v17.0783997c0,2.2997437,1.3873901,4.3760986,3.5031128,5.2749634
	l2.180603,0.4223022c1.4943848,0,2.9483643,0.2639465,4.0324097-0.8324585l21.109314-20.2782898h43.1988525
	c9.4248657,0,17.0794678-9.331604,17.0794678-18.7431641v-22.7891388
	C624.0626221,225.2735596,616.40802,219.271637,606.9831543,219.271637"/>
<rect x="538.6426392" y="242.0337372" width="62.6430779" height="11.4080982"/>
</svg>
