<?xml version="1.0" encoding="utf-8"?>
<!-- Generator: Adobe Illustrator 18.0.0, SVG Export Plug-In . SVG Version: 6.00 Build 0)  -->
<!DOCTYPE svg PUBLIC "-//W3C//DTD SVG 1.0//EN" "http://www.w3.org/TR/2001/REC-SVG-20010904/DTD/svg10.dtd">
<svg version="1.0" id="Layer_1" xmlns="http://www.w3.org/2000/svg" xmlns:xlink="http://www.w3.org/1999/xlink" x="0px" y="0px"
	 viewBox="0 0 197.5009766 62.0112305" enable-background="new 0 0 197.5009766 62.0112305" xml:space="preserve">
<g>
	<g>
		<polygon fill="#1BB580" points="53.371582,62.0112305 51.6118164,59.581543 74.5146484,42.9956055 194.5009766,42.9956055 
			194.5009766,3 3,3 3,42.9956055 47.4985352,42.9956055 47.4985352,45.9956055 0,45.9956055 0,0 197.5009766,0 
			197.5009766,45.9956055 75.4873047,45.9956055 		"/>
	</g>
</g>
<g>
	<path fill="#1BB580" d="M16.6557617,23.800293v-0.0341797c0-2.6005859,1.9887695-4.7421875,4.7763672-4.7421875
		c1.7167969,0,2.7880859,0.578125,3.6376953,1.5292969l-1.5805664,1.7001953
		c-0.578125-0.6123047-1.1557617-1.0029297-2.0737305-1.0029297c-1.2919922,0-2.2099609,1.1386719-2.2099609,2.4814453v0.0341797
		c0,1.3945312,0.9008789,2.515625,2.3115234,2.515625c0.8671875,0,1.4619141-0.3740234,2.0908203-0.96875l1.5131836,1.5302734
		c-0.8842773,0.96875-1.9038086,1.6660156-3.7226562,1.6660156C18.6616211,28.5092773,16.6557617,26.4008789,16.6557617,23.800293z"
		/>
	<path fill="#1BB580" d="M26.109375,23.800293v-0.0341797c0-2.6005859,1.8530273-4.7421875,4.5043945-4.7421875
		c3.0429688,0,4.4365234,2.3623047,4.4365234,4.9462891c0,0.2041016-0.0166016,0.4423828-0.0336914,0.6796875h-6.340332
		c0.2548828,1.1728516,1.0708008,1.7851562,2.2265625,1.7851562c0.8671875,0,1.4960938-0.2714844,2.2099609-0.9345703
		l1.4790039,1.3085938c-0.8500977,1.0537109-2.0742188,1.7001953-3.7226562,1.7001953
		C28.1323242,28.5092773,26.109375,26.5883789,26.109375,23.800293z M32.534668,23.0356445
		c-0.152832-1.15625-0.8330078-1.9384766-1.9208984-1.9384766c-1.0708008,0-1.7675781,0.765625-1.9716797,1.9384766H32.534668z"/>
	<path fill="#1BB580" d="M36.972168,19.1938477h2.5839844v1.2919922c0.5947266-0.7646484,1.3598633-1.4619141,2.668457-1.4619141
		c1.9550781,0,3.09375,1.2919922,3.09375,3.3828125v5.8984375h-2.5834961V23.222168
		c0-1.2236328-0.578125-1.8525391-1.5639648-1.8525391s-1.6147461,0.6289062-1.6147461,1.8525391v5.0830078H36.972168V19.1938477z"
		/>
	<path fill="#1BB580" d="M47.9882812,25.7211914v-4.3173828h-1.0878906v-2.2099609h1.0878906v-2.3291016h2.5834961v2.3291016
		h2.1416016v2.2099609h-2.1416016v3.8925781c0,0.5947266,0.2548828,0.8837891,0.8330078,0.8837891
		c0.4760742,0,0.9008789-0.1191406,1.2749023-0.3232422v2.0742188c-0.5439453,0.3232422-1.1728516,0.5263672-2.0400391,0.5263672
		C49.059082,28.4575195,47.9882812,27.8286133,47.9882812,25.7211914z"/>
	<path fill="#1BB580" d="M53.9228516,23.800293v-0.0341797c0-2.6005859,1.8530273-4.7421875,4.5043945-4.7421875
		c3.0429688,0,4.4365234,2.3623047,4.4365234,4.9462891c0,0.2041016-0.0166016,0.4423828-0.0336914,0.6796875h-6.340332
		c0.2548828,1.1728516,1.0708008,1.7851562,2.2265625,1.7851562c0.8671875,0,1.4960938-0.2714844,2.2099609-0.9345703
		l1.4790039,1.3085938c-0.8500977,1.0537109-2.0742188,1.7001953-3.7226562,1.7001953
		C55.9458008,28.5092773,53.9228516,26.5883789,53.9228516,23.800293z M60.3481445,23.0356445
		c-0.152832-1.15625-0.8330078-1.9384766-1.9208984-1.9384766c-1.0708008,0-1.7675781,0.765625-1.9716797,1.9384766H60.3481445z"/>
	<path fill="#1BB580" d="M64.7856445,19.1938477h2.5839844v1.8359375c0.5268555-1.2578125,1.3769531-2.0742188,2.9067383-2.0058594
		v2.703125h-0.1362305c-1.7167969,0-2.7705078,1.0361328-2.7705078,3.2119141v3.3662109h-2.5839844V19.1938477z"/>
	<path fill="#1BB580" d="M77.4331055,21.4038086h-1.0708008v-2.125h1.0708008v-0.578125
		c0-1.0029297,0.2553711-1.7333984,0.730957-2.2099609c0.4760742-0.4755859,1.1728516-0.7138672,2.0908203-0.7138672
		c0.815918,0,1.3598633,0.1025391,1.8359375,0.2548828v2.1425781c-0.3740234-0.1367188-0.730957-0.2216797-1.1728516-0.2216797
		c-0.5952148,0-0.9350586,0.3066406-0.9350586,0.9863281v0.3564453h2.0908203v2.1083984h-2.0566406v6.9013672h-2.5839844V21.4038086
		z"/>
	<path fill="#1BB580" d="M82.8730469,23.800293v-0.0341797c0-2.6171875,2.1079102-4.7421875,4.9467773-4.7421875
		c2.8212891,0,4.9121094,2.0908203,4.9121094,4.7080078v0.0341797c0,2.6181641-2.1074219,4.7431641-4.9462891,4.7431641
		C84.9638672,28.5092773,82.8730469,26.418457,82.8730469,23.800293z M90.1821289,23.800293v-0.0341797
		c0-1.3427734-0.96875-2.515625-2.3964844-2.515625c-1.4790039,0-2.362793,1.1386719-2.362793,2.4814453v0.0341797
		c0,1.3427734,0.96875,2.515625,2.3969727,2.515625C89.2983398,26.2817383,90.1821289,25.1430664,90.1821289,23.800293z"/>
	<path fill="#1BB580" d="M94.6030273,19.1938477h2.5839844v1.8359375c0.5268555-1.2578125,1.3774414-2.0742188,2.9067383-2.0058594
		v2.703125h-0.1357422c-1.7172852,0-2.7709961,1.0361328-2.7709961,3.2119141v3.3662109h-2.5839844V19.1938477z"/>
	<path fill="#1BB580" d="M106.8085938,15.8959961h2.5839844v4.5898438c0.5947266-0.7646484,1.3603516-1.4619141,2.6689453-1.4619141
		c1.9550781,0,3.09375,1.2919922,3.09375,3.3828125v5.8984375h-2.5839844V23.222168
		c0-1.2236328-0.578125-1.8525391-1.5634766-1.8525391c-0.9863281,0-1.6152344,0.6289062-1.6152344,1.8525391v5.0830078h-2.5839844
		V15.8959961z"/>
	<path fill="#1BB580" d="M117.3320312,25.0922852v-5.8984375h2.5839844v5.0820312
		c0,1.2246094,0.5771484,1.8535156,1.5634766,1.8535156c0.9853516,0,1.6142578-0.6289062,1.6142578-1.8535156v-5.0820312h2.5839844
		v9.1113281H123.09375v-1.2919922c-0.5947266,0.7646484-1.359375,1.4619141-2.6679688,1.4619141
		C118.4707031,28.4750977,117.3320312,27.1831055,117.3320312,25.0922852z"/>
	<path fill="#1BB580" d="M127.9902344,19.1938477h2.5839844v1.2919922c0.5947266-0.7646484,1.3769531-1.4619141,2.6855469-1.4619141
		c1.1904297,0,2.0908203,0.5273438,2.5673828,1.4443359c0.7988281-0.9345703,1.7509766-1.4443359,2.9912109-1.4443359
		c1.9208984,0,3.0771484,1.15625,3.0771484,3.3486328v5.9326172h-2.5839844V23.222168
		c0-1.2236328-0.5439453-1.8525391-1.5126953-1.8525391s-1.5644531,0.6289062-1.5644531,1.8525391v5.0830078h-2.5830078V23.222168
		c0-1.2236328-0.5439453-1.8525391-1.5126953-1.8525391c-0.9697266,0-1.5644531,0.6289062-1.5644531,1.8525391v5.0830078h-2.5839844
		V19.1938477z"/>
	<path fill="#1BB580" d="M143.7324219,23.7661133v-0.0341797c0-3.0419922,1.9882812-4.7080078,4.1474609-4.7080078
		c1.3769531,0,2.2265625,0.6289062,2.8388672,1.359375v-4.4873047h2.5839844v12.4091797H150.71875v-1.3095703
		c-0.6289062,0.8505859-1.4960938,1.4794922-2.8388672,1.4794922
		C145.7548828,28.4750977,143.7324219,26.809082,143.7324219,23.7661133z M150.7529297,23.7661133v-0.0341797
		c0-1.5126953-1.0029297-2.515625-2.2099609-2.515625s-2.2265625,0.9863281-2.2265625,2.515625v0.0341797
		c0,1.5126953,1.0195312,2.515625,2.2265625,2.515625S150.7529297,25.2788086,150.7529297,23.7661133z"/>
	<path fill="#1BB580" d="M155.0722656,25.6870117V25.652832c0-1.9882812,1.5126953-2.90625,3.6708984-2.90625
		c0.9179688,0,1.5810547,0.1533203,2.2275391,0.3740234v-0.1533203c0-1.0703125-0.6630859-1.6660156-1.9550781-1.6660156
		c-0.9863281,0-1.6826172,0.1875-2.515625,0.4931641l-0.6464844-1.9716797
		c1.0029297-0.4423828,1.9892578-0.7304688,3.5361328-0.7304688c1.4111328,0,2.4306641,0.3730469,3.0761719,1.0195312
		c0.6806641,0.6796875,0.9863281,1.6826172,0.9863281,2.90625v5.2871094h-2.4990234v-0.9863281
		c-0.6289062,0.6972656-1.4960938,1.15625-2.7539062,1.15625C156.4824219,28.4750977,155.0722656,27.4887695,155.0722656,25.6870117
		z M161.0039062,25.0922852v-0.4589844c-0.4414062-0.2041016-1.0195312-0.3398438-1.6484375-0.3398438
		c-1.1044922,0-1.7851562,0.4414062-1.7851562,1.2578125v0.0341797c0,0.6962891,0.578125,1.1044922,1.4111328,1.1044922
		C160.1884766,26.6899414,161.0039062,26.0268555,161.0039062,25.0922852z"/>
	<path fill="#1BB580" d="M166.0214844,25.7211914v-4.3173828h-1.0878906v-2.2099609h1.0878906v-2.3291016h2.5839844v2.3291016
		h2.1416016v2.2099609h-2.1416016v3.8925781c0,0.5947266,0.2548828,0.8837891,0.8320312,0.8837891
		c0.4765625,0,0.9013672-0.1191406,1.2753906-0.3232422v2.0742188c-0.5439453,0.3232422-1.1728516,0.5263672-2.0400391,0.5263672
		C167.0917969,28.4575195,166.0214844,27.8286133,166.0214844,25.7211914z"/>
	<path fill="#1BB580" d="M172.1074219,25.6870117V25.652832c0-1.9882812,1.5126953-2.90625,3.6708984-2.90625
		c0.9179688,0,1.5810547,0.1533203,2.2275391,0.3740234v-0.1533203c0-1.0703125-0.6630859-1.6660156-1.9550781-1.6660156
		c-0.9863281,0-1.6826172,0.1875-2.515625,0.4931641l-0.6464844-1.9716797
		c1.0029297-0.4423828,1.9892578-0.7304688,3.5361328-0.7304688c1.4111328,0,2.4306641,0.3730469,3.0761719,1.0195312
		c0.6806641,0.6796875,0.9863281,1.6826172,0.9863281,2.90625v5.2871094h-2.4990234v-0.9863281
		c-0.6289062,0.6972656-1.4960938,1.15625-2.7539062,1.15625C173.5175781,28.4750977,172.1074219,27.4887695,172.1074219,25.6870117
		z M178.0390625,25.0922852v-0.4589844c-0.4414062-0.2041016-1.0195312-0.3398438-1.6484375-0.3398438
		c-1.1044922,0-1.7851562,0.4414062-1.7851562,1.2578125v0.0341797c0,0.6962891,0.578125,1.1044922,1.4111328,1.1044922
		C177.2236328,26.6899414,178.0390625,26.0268555,178.0390625,25.0922852z"/>
</g>
</svg>
