<?xml version="1.0" encoding="utf-8"?>
<!-- Generator: Adobe Illustrator 18.0.0, SVG Export Plug-In . SVG Version: 6.00 Build 0)  -->
<!DOCTYPE svg PUBLIC "-//W3C//DTD SVG 1.0//EN" "http://www.w3.org/TR/2001/REC-SVG-20010904/DTD/svg10.dtd">
<svg version="1.0"
	 id="Layer_1" xmlns:rdf="http://www.w3.org/1999/02/22-rdf-syntax-ns#" xmlns:svg="http://www.w3.org/2000/svg" xmlns:cc="http://creativecommons.org/ns#" xmlns:inkscape="http://www.inkscape.org/namespaces/inkscape" xmlns:sodipodi="http://sodipodi.sourceforge.net/DTD/sodipodi-0.dtd" xmlns:dc="http://purl.org/dc/elements/1.1/"
	 xmlns="http://www.w3.org/2000/svg" xmlns:xlink="http://www.w3.org/1999/xlink" x="0px" y="0px"
	 viewBox="230.759903 183.5997925 32.4000397 24" enable-background="new 230.759903 183.5997925 32.4000397 24"
	 xml:space="preserve">
<g transform="translate(0,-952.36218)">
	<path fill="#1BB580" d="M263.1599426,1147.9588623c-0.0168152-0.4290771-0.1933899-0.9249268-0.4875183-1.2376709
		l-9.5999908-10.2004395c-0.650528-0.5845947-1.8979187-0.8259277-2.625-0.1499023
		c-0.7161713,0.6656494-0.69487,1.956665,0.0186005,2.625l6.75,7.1629639H232.559906
		c-0.9940796,0-1.8000031,0.8059082-1.8000031,1.8000488s0.8059235,1.8000488,1.8000031,1.8000488h24.6561279l-6.75,7.1628418
		c-0.6142273,0.6153564-0.7277527,1.9517822-0.0186005,2.6251221c0.7089539,0.6732178,2.0011749,0.4581299,2.625-0.1500244
		l9.5999908-10.2004395C263.000946,1148.84729,263.1610107,1148.4377441,263.1599426,1147.9588623z"/>
</g>
</svg>
