<?xml version="1.0" encoding="utf-8"?>
<!-- Generator: Adobe Illustrator 18.0.0, SVG Export Plug-In . SVG Version: 6.00 Build 0)  -->
<!DOCTYPE svg PUBLIC "-//W3C//DTD SVG 1.0//EN" "http://www.w3.org/TR/2001/REC-SVG-20010904/DTD/svg10.dtd">
<svg version="1.0" id="Layer_1" xmlns="http://www.w3.org/2000/svg" xmlns:xlink="http://www.w3.org/1999/xlink" x="0px" y="0px"
	 viewBox="0 0 249.7033691 237.0845032" enable-background="new 0 0 249.7033691 237.0845032" xml:space="preserve">
<g>
	<path d="M51.3564186,65.5599594h-4.702774v122.2116013c0,1.4132843,0.9405251,2.3489532,2.3538933,2.3489532h79.906723v-4.6977692
		H51.3564186V65.5599594z"/>
	<path d="M151.4779053,70.2607651h-13.1626434v-13.162796L151.4779053,70.2607651z M60.7574158,53.8084869h72.855072v18.8010864
		c0,1.4082794,0.9405212,2.3488007,2.3538208,2.3488007h18.8010864v7.0517349h4.6977539v-9.4005356l-0.2338715-0.7066498v-0.2338791
		l-0.4677582-0.7016373l-21.1549072-21.1548996l-0.7017822-0.4727669h-0.238739l-0.7017822-0.2338791H58.408535
		c-1.4133682,0-2.3538933,0.9405251-2.3538933,2.353817v126.9142227c0,1.408432,0.9405251,2.3489532,2.3538933,2.3489532h79.906723
		v-4.702774H60.7574158V53.8084869z"/>
	<rect x="100.7108154" y="112.5623932" width="4.7027769" height="4.7027769"/>
	<rect x="91.3102722" y="112.5623932" width="4.7027769" height="4.7027769"/>
	<rect x="81.9048767" y="112.5623932" width="4.7027769" height="4.7027769"/>
	<rect x="72.5043335" y="112.5623932" width="4.7027769" height="4.7027769"/>
	<rect x="110.1113586" y="112.5623932" width="4.7027769" height="4.7027769"/>
	<rect x="67.806572" y="60.8622017" width="4.6977649" height="4.6977649"/>
	<rect x="77.2071152" y="60.8622017" width="4.6977649" height="4.6977649"/>
	<rect x="77.2071152" y="70.2625961" width="4.6977649" height="4.6977649"/>
	<rect x="67.806572" y="70.2625961" width="4.6977649" height="4.6977649"/>
	<rect x="86.6125183" y="60.8622017" width="18.8010826" height="4.6977649"/>
	<rect x="86.6125183" y="70.2625961" width="18.8010826" height="4.6977649"/>
	<rect x="67.806572" y="86.7146835" width="61.1057243" height="4.6977649"/>
	<rect x="67.806572" y="98.4641953" width="79.9068069" height="4.6977649"/>
	<rect x="67.806572" y="126.6656723" width="79.9068069" height="4.6977649"/>
	<rect x="67.806572" y="138.4150238" width="79.9068069" height="4.7027769"/>
	<rect x="67.806572" y="150.1693878" width="51.7053337" height="4.7027769"/>
	<rect x="124.2145309" y="150.1693878" width="4.6977649" height="4.7027769"/>
	<rect x="133.6150665" y="150.1693878" width="4.6977649" height="4.7027769"/>
	<rect x="143.0156097" y="150.1693878" width="4.6977649" height="4.7027769"/>
	<path d="M206.390564,140.7644501c-2.5878448,0-4.702774-2.1099243-4.702774-4.6977692
		c0-2.5826874,2.1149292-4.702774,4.702774-4.702774c2.5876923,0,4.6976166,2.1200867,4.6976166,4.702774
		C211.0881805,138.6545258,208.9782562,140.7644501,206.390564,140.7644501 M172.3615723,171.3198853
		c0,2.5877075-2.1149292,4.702774-4.6977692,4.702774c-2.5876923,0-4.702774-2.1150665-4.702774-4.702774
		c0-2.58284,2.1150818-4.6977539,4.702774-4.6977539C170.2466431,166.6221313,172.3615723,168.7370453,172.3615723,171.3198853
		 M179.413147,67.9093781c0-2.5878525,2.1150818-4.7027779,4.7027893-4.7027779
		c2.5828247,0,4.6977539,2.1149254,4.6977539,4.7027779c0,2.5826797-2.1149292,4.7026215-4.6977539,4.7026215
		C181.5282288,72.6119995,179.413147,70.4920578,179.413147,67.9093781 M206.390564,126.6661377
		c-4.4638824,0-7.9922638,3.055603-9.1666718,7.0517426H170.012619v-16.4521332h14.1033173
		c1.4082794,0,2.3488007-0.9405212,2.3488007-2.3489532V77.0758896c3.9961243-0.9405289,7.0517426-4.7026291,7.0517426-9.1665115
		c0-5.170536-4.230011-9.4005432-9.4005432-9.4005432s-9.4005432,4.2300072-9.4005432,9.4005432
		c0,4.4638824,3.055603,7.9921036,7.0467224,9.1665115v35.4870834H130.056778v4.702774h35.2580719v44.8874817
		c-4.0009918,0.9405212-7.05159,4.702774-7.05159,9.1666565c0,5.1705322,4.230011,9.4005432,9.4005432,9.4005432
		s9.4005432-4.230011,9.4005432-9.4005432c0-4.4638824-3.055603-7.9922485-7.0517273-9.1666565v-23.7375946h27.2112732
		c0.9405365,3.9959869,4.7027893,7.05159,9.1666718,7.05159c5.1703796,0,9.4003906-4.230011,9.4003906-9.4005432
		S211.5609436,126.6661377,206.390564,126.6661377"/>
	<rect x="67.8065643" y="161.9187469" width="28.2014732" height="4.7027769"/>
	<path fill="#E5DDED" d="M112.5471878,12.0845938h-0.0447998h-0.0447998c-30.9733887,0-59.2345467,12.6402121-79.5035934,32.9540634
		C12.6301947,65.3175812-0.0100174,93.5987854,0.000006,124.5870514
		c-0.0100234,30.988266,12.6301889,59.2694702,32.9539871,79.5485535
		c20.2690468,20.3088379,48.5302048,32.9488983,79.5035934,32.9488983h0.0447998h0.0447998
		c30.9733963,0,59.2296829-12.6350555,79.503746-32.9488983c20.3187103-20.2790833,32.9639435-48.5602875,32.9490509-79.5485535
		h-24.658371h-24.6582184c0,3.1052704-0.223999,6.1508484-0.6519623,9.1268768h22.1949005
		c1.1745453-3.9911194,4.6977539-7.0467224,9.1666565-7.0467224c5.1655273,0,9.4005432,4.230011,9.4005432,9.4005432
		s-4.2350159,9.4005432-9.4005432,9.4005432c-4.4689026,0-8.2310028-3.0556183-9.1666565-7.0517426h-23.0558472
		c-0.9604187,4.3196106-2.3638458,8.4650269-4.1552887,12.391449v11.3462982
		c3.9911194,1.1743927,7.0465698,4.7026215,7.0465698,9.1665039c0,5.1705322-4.2298584,9.4005432-9.4003906,9.4005432
		s-9.4005432-4.230011-9.4005432-9.4005432c0-1.5127716,0.353241-2.9459534,0.9704437-4.2099609
		c-0.6668549,0.7315521-1.3536072,1.4480743-2.0503845,2.149704c-7.7731171,7.7483673-17.4224091,13.4613647-28.2661743,16.3626709
		v4.4986725h-79.906723c-1.4132919,0-2.3538933-0.9405212-2.3538933-2.3489685V65.5614777h4.7027779v43.0162964
		c1.1296768-4.3443604,2.7171631-8.5046616,4.6977654-12.4260712V51.4581604c0-1.4082794,0.9405251-2.3488045,2.3538933-2.3488045
		h77.5577698l0.7017822,0.2338753h0.238739l0.7017822,0.4677582l21.1549072,21.1548996l0.4677582,0.7016373v0.2388916
		l0.2338715,0.7016296v9.4055557h-0.2836914c7.7085724,8.4550095,13.1328888,18.9054184,15.3623199,30.5504303h7.2207642V77.0769501
		c-3.9959717-1.1744003-7.05159-4.702774-7.05159-9.1666641c0-5.1705322,4.230011-9.4003906,9.4005432-9.4003906
		s9.4003906,4.2298584,9.4003906,9.4003906c0,4.4638901-3.0554504,8.2261353-7.0515747,9.1666641v37.8358917
		c0,1.4132919-0.9355164,2.3538208-2.3488159,2.3538208h-8.8481903c0.2736664,2.3987732,0.4180908,4.8371811,0.4180908,7.3203888
		h24.6582184h24.658371c0.0148926-30.988266-12.6303406-59.2694702-32.9490509-79.5483932
		C171.7818909,24.7248058,143.515564,12.0845938,112.5471878,12.0845938 M133.6124878,53.8071213h-72.855072v34.5116272
		c2.109993-2.9957657,4.4737625-5.8074722,7.0665436-8.410202c2.8813324-2.8713837,6.0213776-5.4640961,9.385582-7.7383347
		v-1.910965h3.0056381c3.0654831-1.8313904,6.300293-3.4039917,9.6742096-4.6977692h-3.2794571v-4.702774h18.8010864v0.9355125
		c2.3238983-0.2587852,4.6877365-0.3880272,7.0913696-0.3930359c7.4348984,0.0050087,14.5262756,1.2738762,21.1100998,3.6029396
		V53.8071213z M77.2095413,60.8587036h4.6977692v4.702774h-4.6977692V60.8587036z M67.8089981,60.8587036h4.6977692v4.702774
		h-4.6977692V60.8587036z M67.8089981,70.2592468h4.6977692v4.702774h-4.6977692V70.2592468z M138.3152618,57.0964508v9.7937317
		c2.2294464,1.000206,4.3891754,2.1249542,6.4743347,3.3690643h6.6883087L138.3152618,57.0964508z M154.767395,74.9620209
		h-3.1600952c1.0799408,0.8509216,2.1349792,1.7416382,3.1600952,2.662262V74.9620209z M208.6025391,140.2081451
		c-0.7166748,0.3383636-1.5079193,0.5374756-2.3439484,0.5573578c0.0397797,0,0.0845947,0,0.1343994,0
		C207.1892395,140.7655029,207.9406891,140.5664062,208.6025391,140.2081451 M51.3568764,140.5913086v44.8328094h43.9967613
		c-4.1554413-1.1695404-8.1315231-2.7520142-11.8937759-4.702774H58.408535c-1.4133682,0-2.3538933-0.9405212-2.3538933-2.3488007
		v-25.3501434C54.0740395,149.0959778,52.4865532,144.9406891,51.3568764,140.5913086 M165.3124237,159.2828979
		c-0.9654388,1.4679718-1.9905548,2.8912811-3.0753479,4.2698059c0.9206238-0.6569824,1.9606171-1.1347656,3.0753479-1.398407
		V159.2828979z M60.7574158,160.8503418v15.173233h15.0436935c-2.8366089-2.0303345-5.4988785-4.2947083-7.97715-6.763031
		C65.2311783,166.6629791,62.8674088,163.8462677,60.7574158,160.8503418"/>
	<path fill="#E5B733" d="M184.114563,63.2090263c-2.58284,0-4.702774,2.1150856-4.702774,4.7027779
		c0,2.58284,2.1199341,4.6977692,4.702774,4.6977692c2.5876923,0,4.7026215-2.1149292,4.7026215-4.6977692
		C188.8171844,65.3241119,186.7022552,63.2090263,184.114563,63.2090263"/>
	<path fill="#246EB7" d="M206.390564,131.3658752c-2.5878448,0-4.702774,2.1150818-4.702774,4.702774
		c0,2.5380402,2.0452118,4.6231995,4.5683746,4.6977692c0.8360291-0.0249023,1.6322784-0.2189941,2.3488007-0.5573578
		c1.4731293-0.7912445,2.4832153-2.3538208,2.4832153-4.1404114
		C211.0881805,133.480957,208.9782562,131.3658752,206.390564,131.3658752"/>
	<path fill="#66B2C3" d="M167.6619873,166.6204529c-2.58284,0-4.6977692,2.1150818-4.6977692,4.6977692
		c0,2.5878448,2.1149292,4.702774,4.6977692,4.702774c2.5876923,0,4.7026215-2.1149292,4.7026215-4.702774
		C172.3646088,168.7355347,170.2496796,166.6204529,167.6619873,166.6204529"/>
	<path d="M51.3564186,65.5599594h-4.702774v122.2116013c0,1.4132843,0.9405251,2.3489532,2.3538933,2.3489532h79.906723v-4.4988098
		c-5.2203369,1.398407-10.7143555,2.1448364-16.4123306,2.1448364c-5.9617691,0-11.7095566-0.8161316-17.1488953-2.3437958
		H51.3564186v-44.8327942c-1.3287773-5.0959625-2.0354233-10.4555817-2.0354233-16.0042648
		c0-5.5488358,0.706646-10.9034348,2.0354233-16.0042648V65.5599594z"/>
	<path d="M135.9628143,49.1088982H58.4049644c-1.4082794,0-2.3488045,0.9405251-2.3488045,2.3488083v44.6935387
		c1.378437-2.7271118,2.9509659-5.3447266,4.7027016-7.8279343V53.8066635h72.8551483v11.2020111
		c1.5973511,0.5622177,3.1649475,1.1942978,4.702774,1.8810501v-9.7935791l13.1576233,13.1626434h-6.6883087
		c2.3787231,1.4183044,4.6529694,2.9907532,6.8227081,4.702774h3.1600952v2.6624222
		c0.8210144,0.7414246,1.6222687,1.502739,2.408493,2.2841034c0.6867523,0.6867523,1.3536072,1.3883896,2.0055847,2.1050568
		h0.2836914v-9.4005356l-0.234024-0.7066498V71.672081l-0.4726257-0.7066422l-21.1498871-21.1549034l-0.7068024-0.4677582
		h-0.2338715L135.9628143,49.1088982z M56.05616,153.0219421v25.3501434c0,1.4082794,0.9405251,2.3488007,2.3488045,2.3488007
		H83.46138c-2.6674271-1.3833771-5.2253571-2.9559784-7.6587524-4.6977692h-15.043766v-15.1730804
		C59.0071259,158.3618164,57.434597,155.749054,56.05616,153.0219421"/>
	<rect x="67.806572" y="60.8622017" width="4.6977649" height="4.6977649"/>
	<rect x="77.2071152" y="60.8622017" width="4.6977649" height="4.6977649"/>
	<path d="M80.215332,70.259697h-3.0057907v1.9109726C78.1898575,71.5088196,79.195076,70.8668747,80.215332,70.259697"/>
	<rect x="67.806572" y="70.2625961" width="4.6977649" height="4.6977649"/>
	<path d="M105.4120789,60.8587036H86.6109924v4.702774h3.2794647c4.9018784-1.8810463,10.0971603-3.1649475,15.5216217-3.7671089
		V60.8587036z"/>
	<path d="M184.1141052,58.5079231c-5.1705322,0-9.4005432,4.2300072-9.4005432,9.4005394
		c0,4.46875,3.0554504,7.9921112,7.05159,9.1665115V112.56707h-7.2207642
		c0.2985687,1.5426865,0.5374603,3.1102829,0.7215271,4.6977692h8.8481903c1.4082794,0,2.3488159-0.9405289,2.3488159-2.3489609
		V77.0749741c3.9961243-0.9405212,7.0515747-4.6977615,7.0515747-9.1665115
		C193.5144958,62.7379303,189.2844849,58.5079231,184.1141052,58.5079231 M184.1141052,72.6110916
		c-2.58284,0-4.702774-2.1149292-4.702774-4.7026291c0-2.5828323,2.1199341-4.6977654,4.702774-4.6977654
		c2.5876923,0,4.7026215,2.114933,4.7026215,4.6977654C188.8167267,70.4961624,186.7017975,72.6110916,184.1141052,72.6110916
		 M206.3885803,126.6652298c-4.4638824,0-7.9872437,3.0556107-9.1666565,7.0517349h-22.1898956
		c-0.2288666,1.5874786-0.5175629,3.1550751-0.8609314,4.7026215h23.050827
		c0.9406738,3.9911194,4.702774,7.0467224,9.1666565,7.0467224c5.1705475,0,9.4005432-4.230011,9.4005432-9.4005432
		S211.5591278,126.6652298,206.3885803,126.6652298 M206.2541809,140.7635345
		c-2.522995-0.0697021-4.5633545-2.1547241-4.5633545-4.6977692c0-2.5826874,2.1149292-4.6977539,4.6977539-4.6977539
		c2.5877075,0,4.7027893,2.1150665,4.7027893,4.6977539c0,1.7865906-1.0102386,3.3491669-2.4882202,4.1454163
		c-0.66185,0.3532562-1.4132996,0.5573578-2.2145691,0.5573578
		C206.3437805,140.7685394,206.2989807,140.7685394,206.2541809,140.7635345 M170.010788,150.8060303
		c-1.3486023,2.9559784-2.9212036,5.7875671-4.6977692,8.4799042v2.8663788
		c-1.1147156,0.2637939-2.1548615,0.7464447-3.0755005,1.398407c-0.9553986,1.2192078-1.9606171,2.4086456-3.0056305,3.5581512
		c-0.6220551,1.2690125-0.9704437,2.6971893-0.9704437,4.2101135c0,5.1705322,4.230011,9.4003906,9.4005432,9.4003906
		c5.1703796,0,9.4003906-4.2298584,9.4003906-9.4003906c0-4.4638977-3.0554657-7.9872589-7.05159-9.1666718V150.8060303z
		 M167.6619873,176.0216064c-2.58284,0-4.6977692-2.1149292-4.6977692-4.7026215c0-2.58284,2.1149292-4.6977692,4.6977692-4.6977692
		c2.5876923,0,4.7026215,2.1149292,4.7026215,4.6977692C172.3646088,173.9066772,170.2496796,176.0216064,167.6619873,176.0216064"
		/>
	
		<circle fill="#FFFFFF" stroke="#17B581" stroke-width="4.827508" stroke-miterlimit="10" cx="241.4509583" cy="24.8867455" r="5.8386469"/>
	
		<circle fill="#FFFFFF" stroke="#FBB03B" stroke-width="4.827508" stroke-linecap="round" stroke-miterlimit="10" cx="147.6727448" cy="221.5748291" r="5.8386292"/>
	
		<circle fill="#FFFFFF" stroke="#FBB03B" stroke-width="4.827508" stroke-linecap="round" stroke-miterlimit="10" cx="173.86586" cy="41.7501488" r="5.8386464"/>
	<g>
		
			<line fill="#FFFFFF" stroke="#17B581" stroke-width="4.827508" stroke-linecap="round" stroke-miterlimit="10" x1="205.8835602" y1="7.9576087" x2="216.9762115" y2="7.9576087"/>
		
			<line fill="#FFFFFF" stroke="#17B581" stroke-width="4.827508" stroke-linecap="round" stroke-miterlimit="10" x1="211.427475" y1="2.4137535" x2="211.427475" y2="13.5039873"/>
	</g>
	<g>
		
			<line fill="#FFFFFF" stroke="#17B581" stroke-width="4.827508" stroke-linecap="round" stroke-miterlimit="10" x1="117.0482788" y1="13.5015736" x2="128.1408997" y2="13.5015736"/>
		
			<line fill="#FFFFFF" stroke="#17B581" stroke-width="4.827508" stroke-linecap="round" stroke-miterlimit="10" x1="122.5921555" y1="7.9576087" x2="122.5921555" y2="19.0483799"/>
	</g>
	
		<line fill="#FFFFFF" stroke="#17B581" stroke-width="4.827508" stroke-linecap="round" stroke-miterlimit="10" x1="210.4470062" y1="112.8922348" x2="221.5396881" y2="112.8922348"/>
	
		<line fill="#FFFFFF" stroke="#17B581" stroke-width="4.827508" stroke-linecap="round" stroke-miterlimit="10" x1="215.990921" y1="107.3483276" x2="215.990921" y2="118.4385605"/>
	<g>
		
			<line fill="#FFFFFF" stroke="#FBB03B" stroke-width="4.827508" stroke-linecap="round" stroke-miterlimit="10" x1="55.4927254" y1="24.8867683" x2="66.5858231" y2="24.8867683"/>
		
			<line fill="#FFFFFF" stroke="#FBB03B" stroke-width="4.827508" stroke-linecap="round" stroke-miterlimit="10" x1="61.0370865" y1="19.3428574" x2="61.0370865" y2="30.43116"/>
	</g>
</g>
</svg>
