<?xml version="1.0" encoding="utf-8"?>
<!-- Generator: Adobe Illustrator 18.0.0, SVG Export Plug-In . SVG Version: 6.00 Build 0)  -->
<!DOCTYPE svg PUBLIC "-//W3C//DTD SVG 1.0//EN" "http://www.w3.org/TR/2001/REC-SVG-20010904/DTD/svg10.dtd">
<svg version="1.0" id="Layer_1" xmlns="http://www.w3.org/2000/svg" xmlns:xlink="http://www.w3.org/1999/xlink" x="0px" y="0px"
	 viewBox="298.6699219 275.0444336 197.5009766 62.0112305"
	 enable-background="new 298.6699219 275.0444336 197.5009766 62.0112305" xml:space="preserve">
<g>
	<g>
		<polygon fill="#FFFFFF" points="352.0415039,337.0556641 350.2817383,334.6259766 373.1845703,318.0400391 
			493.1708984,318.0400391 493.1708984,278.0444336 301.6699219,278.0444336 301.6699219,318.0400391 346.168457,318.0400391 
			346.168457,321.0400391 298.6699219,321.0400391 298.6699219,275.0444336 496.1708984,275.0444336 496.1708984,321.0400391 
			374.1572266,321.0400391 		"/>
	</g>
</g>
<g>
	<path fill="#FFFFFF" d="M315.3256836,298.8447266v-0.0341797c0-2.6005859,1.9887695-4.7421875,4.7763672-4.7421875
		c1.7167969,0,2.7880859,0.578125,3.6376953,1.5292969l-1.5805664,1.7001953
		c-0.578125-0.6123047-1.1557617-1.0029297-2.0737305-1.0029297c-1.2919922,0-2.2099609,1.1386719-2.2099609,2.4814453v0.0341797
		c0,1.3945312,0.9008789,2.515625,2.3115234,2.515625c0.8671875,0,1.4619141-0.3740234,2.0908203-0.96875l1.5131836,1.5302734
		c-0.8842773,0.96875-1.9038086,1.6660156-3.7226562,1.6660156
		C317.331543,303.5537109,315.3256836,301.4453125,315.3256836,298.8447266z"/>
	<path fill="#FFFFFF" d="M324.7792969,298.8447266v-0.0341797c0-2.6005859,1.8530273-4.7421875,4.5043945-4.7421875
		c3.0429688,0,4.4365234,2.3623047,4.4365234,4.9462891c0,0.2041016-0.0166016,0.4423828-0.0336914,0.6796875h-6.340332
		c0.2548828,1.1728516,1.0708008,1.7851562,2.2265625,1.7851562c0.8671875,0,1.4960938-0.2714844,2.2099609-0.9345703
		l1.4790039,1.3085938c-0.8500977,1.0537109-2.0742188,1.7001953-3.7226562,1.7001953
		C326.8022461,303.5537109,324.7792969,301.6328125,324.7792969,298.8447266z M331.2045898,298.0800781
		c-0.152832-1.15625-0.8330078-1.9384766-1.9208984-1.9384766c-1.0708008,0-1.7675781,0.765625-1.9716797,1.9384766H331.2045898z"/>
	<path fill="#FFFFFF" d="M335.6420898,294.2382812h2.5839844v1.2919922c0.5947266-0.7646484,1.3598633-1.4619141,2.668457-1.4619141
		c1.9550781,0,3.09375,1.2919922,3.09375,3.3828125v5.8984375h-2.5834961v-5.0830078
		c0-1.2236328-0.578125-1.8525391-1.5639648-1.8525391s-1.6147461,0.6289062-1.6147461,1.8525391v5.0830078h-2.5839844V294.2382812z
		"/>
	<path fill="#FFFFFF" d="M346.6582031,300.765625v-4.3173828h-1.0878906v-2.2099609h1.0878906v-2.3291016h2.5834961v2.3291016
		h2.1416016v2.2099609h-2.1416016v3.8925781c0,0.5947266,0.2548828,0.8837891,0.8330078,0.8837891
		c0.4760742,0,0.9008789-0.1191406,1.2749023-0.3232422v2.0742188c-0.5439453,0.3232422-1.1728516,0.5263672-2.0400391,0.5263672
		C347.7290039,303.5019531,346.6582031,302.8730469,346.6582031,300.765625z"/>
	<path fill="#FFFFFF" d="M352.5927734,298.8447266v-0.0341797c0-2.6005859,1.8530273-4.7421875,4.5043945-4.7421875
		c3.0429688,0,4.4365234,2.3623047,4.4365234,4.9462891c0,0.2041016-0.0166016,0.4423828-0.0336914,0.6796875h-6.340332
		c0.2548828,1.1728516,1.0708008,1.7851562,2.2265625,1.7851562c0.8671875,0,1.4960938-0.2714844,2.2099609-0.9345703
		l1.4790039,1.3085938c-0.8500977,1.0537109-2.0742188,1.7001953-3.7226562,1.7001953
		C354.6157227,303.5537109,352.5927734,301.6328125,352.5927734,298.8447266z M359.0180664,298.0800781
		c-0.152832-1.15625-0.8330078-1.9384766-1.9208984-1.9384766c-1.0708008,0-1.7675781,0.765625-1.9716797,1.9384766H359.0180664z"/>
	<path fill="#FFFFFF" d="M363.4555664,294.2382812h2.5839844v1.8359375
		c0.5268555-1.2578125,1.3769531-2.0742188,2.9067383-2.0058594v2.703125h-0.1362305
		c-1.7167969,0-2.7705078,1.0361328-2.7705078,3.2119141v3.3662109h-2.5839844V294.2382812z"/>
	<path fill="#FFFFFF" d="M376.1030273,296.4482422h-1.0708008v-2.125h1.0708008v-0.578125
		c0-1.0029297,0.2553711-1.7333984,0.730957-2.2099609c0.4760742-0.4755859,1.1728516-0.7138672,2.0908203-0.7138672
		c0.815918,0,1.3598633,0.1025391,1.8359375,0.2548828v2.1425781c-0.3740234-0.1367188-0.730957-0.2216797-1.1728516-0.2216797
		c-0.5952148,0-0.9350586,0.3066406-0.9350586,0.9863281v0.3564453h2.0908203v2.1083984h-2.0566406v6.9013672h-2.5839844
		V296.4482422z"/>
	<path fill="#FFFFFF" d="M381.5429688,298.8447266v-0.0341797c0-2.6171875,2.1079102-4.7421875,4.9467773-4.7421875
		c2.8212891,0,4.9121094,2.0908203,4.9121094,4.7080078v0.0341797c0,2.6181641-2.1074219,4.7431641-4.9462891,4.7431641
		C383.6337891,303.5537109,381.5429688,301.4628906,381.5429688,298.8447266z M388.8520508,298.8447266v-0.0341797
		c0-1.3427734-0.96875-2.515625-2.3964844-2.515625c-1.4790039,0-2.362793,1.1386719-2.362793,2.4814453v0.0341797
		c0,1.3427734,0.96875,2.515625,2.3969727,2.515625C387.9682617,301.3261719,388.8520508,300.1875,388.8520508,298.8447266z"/>
	<path fill="#FFFFFF" d="M393.2729492,294.2382812h2.5839844v1.8359375
		c0.5268555-1.2578125,1.3774414-2.0742188,2.9067383-2.0058594v2.703125h-0.1357422
		c-1.7172852,0-2.7709961,1.0361328-2.7709961,3.2119141v3.3662109h-2.5839844V294.2382812z"/>
	<path fill="#FFFFFF" d="M405.4785156,290.9404297H408.0625v4.5898438c0.5947266-0.7646484,1.3603516-1.4619141,2.6689453-1.4619141
		c1.9550781,0,3.09375,1.2919922,3.09375,3.3828125v5.8984375h-2.5839844v-5.0830078
		c0-1.2236328-0.578125-1.8525391-1.5634766-1.8525391c-0.9863281,0-1.6152344,0.6289062-1.6152344,1.8525391v5.0830078h-2.5839844
		V290.9404297z"/>
	<path fill="#FFFFFF" d="M416.0019531,300.1367188v-5.8984375h2.5839844v5.0820312
		c0,1.2246094,0.5771484,1.8535156,1.5634766,1.8535156c0.9853516,0,1.6142578-0.6289062,1.6142578-1.8535156v-5.0820312h2.5839844
		v9.1113281h-2.5839844v-1.2919922c-0.5947266,0.7646484-1.359375,1.4619141-2.6679688,1.4619141
		C417.140625,303.5195312,416.0019531,302.2275391,416.0019531,300.1367188z"/>
	<path fill="#FFFFFF" d="M426.6601562,294.2382812h2.5839844v1.2919922
		c0.5947266-0.7646484,1.3769531-1.4619141,2.6855469-1.4619141c1.1904297,0,2.0908203,0.5273438,2.5673828,1.4443359
		c0.7988281-0.9345703,1.7509766-1.4443359,2.9912109-1.4443359c1.9208984,0,3.0771484,1.15625,3.0771484,3.3486328v5.9326172
		h-2.5839844v-5.0830078c0-1.2236328-0.5439453-1.8525391-1.5126953-1.8525391s-1.5644531,0.6289062-1.5644531,1.8525391v5.0830078
		h-2.5830078v-5.0830078c0-1.2236328-0.5439453-1.8525391-1.5126953-1.8525391
		c-0.9697266,0-1.5644531,0.6289062-1.5644531,1.8525391v5.0830078h-2.5839844V294.2382812z"/>
	<path fill="#FFFFFF" d="M442.4023438,298.8105469v-0.0341797c0-3.0419922,1.9882812-4.7080078,4.1474609-4.7080078
		c1.3769531,0,2.2265625,0.6289062,2.8388672,1.359375v-4.4873047h2.5839844v12.4091797h-2.5839844v-1.3095703
		c-0.6289062,0.8505859-1.4960938,1.4794922-2.8388672,1.4794922
		C444.4248047,303.5195312,442.4023438,301.8535156,442.4023438,298.8105469z M449.4228516,298.8105469v-0.0341797
		c0-1.5126953-1.0029297-2.515625-2.2099609-2.515625s-2.2265625,0.9863281-2.2265625,2.515625v0.0341797
		c0,1.5126953,1.0195312,2.515625,2.2265625,2.515625S449.4228516,300.3232422,449.4228516,298.8105469z"/>
	<path fill="#FFFFFF" d="M453.7421875,300.7314453v-0.0341797c0-1.9882812,1.5126953-2.90625,3.6708984-2.90625
		c0.9179688,0,1.5810547,0.1533203,2.2275391,0.3740234v-0.1533203c0-1.0703125-0.6630859-1.6660156-1.9550781-1.6660156
		c-0.9863281,0-1.6826172,0.1875-2.515625,0.4931641l-0.6464844-1.9716797
		c1.0029297-0.4423828,1.9892578-0.7304688,3.5361328-0.7304688c1.4111328,0,2.4306641,0.3730469,3.0761719,1.0195312
		c0.6806641,0.6796875,0.9863281,1.6826172,0.9863281,2.90625v5.2871094h-2.4990234v-0.9863281
		c-0.6289062,0.6972656-1.4960938,1.15625-2.7539062,1.15625
		C455.1523438,303.5195312,453.7421875,302.5332031,453.7421875,300.7314453z M459.6738281,300.1367188v-0.4589844
		c-0.4414062-0.2041016-1.0195312-0.3398438-1.6484375-0.3398438c-1.1044922,0-1.7851562,0.4414062-1.7851562,1.2578125v0.0341797
		c0,0.6962891,0.578125,1.1044922,1.4111328,1.1044922C458.8583984,301.734375,459.6738281,301.0712891,459.6738281,300.1367188z"/>
	<path fill="#FFFFFF" d="M464.6914062,300.765625v-4.3173828h-1.0878906v-2.2099609h1.0878906v-2.3291016h2.5839844v2.3291016
		h2.1416016v2.2099609h-2.1416016v3.8925781c0,0.5947266,0.2548828,0.8837891,0.8320312,0.8837891
		c0.4765625,0,0.9013672-0.1191406,1.2753906-0.3232422v2.0742188c-0.5439453,0.3232422-1.1728516,0.5263672-2.0400391,0.5263672
		C465.7617188,303.5019531,464.6914062,302.8730469,464.6914062,300.765625z"/>
	<path fill="#FFFFFF" d="M470.7773438,300.7314453v-0.0341797c0-1.9882812,1.5126953-2.90625,3.6708984-2.90625
		c0.9179688,0,1.5810547,0.1533203,2.2275391,0.3740234v-0.1533203c0-1.0703125-0.6630859-1.6660156-1.9550781-1.6660156
		c-0.9863281,0-1.6826172,0.1875-2.515625,0.4931641l-0.6464844-1.9716797
		c1.0029297-0.4423828,1.9892578-0.7304688,3.5361328-0.7304688c1.4111328,0,2.4306641,0.3730469,3.0761719,1.0195312
		c0.6806641,0.6796875,0.9863281,1.6826172,0.9863281,2.90625v5.2871094h-2.4990234v-0.9863281
		c-0.6289062,0.6972656-1.4960938,1.15625-2.7539062,1.15625C472.1875,303.5195312,470.7773438,302.5332031,470.7773438,300.7314453
		z M476.7089844,300.1367188v-0.4589844c-0.4414062-0.2041016-1.0195312-0.3398438-1.6484375-0.3398438
		c-1.1044922,0-1.7851562,0.4414062-1.7851562,1.2578125v0.0341797c0,0.6962891,0.578125,1.1044922,1.4111328,1.1044922
		C475.8935547,301.734375,476.7089844,301.0712891,476.7089844,300.1367188z"/>
</g>
</svg>
