<?xml version="1.0" encoding="utf-8"?>
<!-- Generator: Adobe Illustrator 18.0.0, SVG Export Plug-In . SVG Version: 6.00 Build 0)  -->
<!DOCTYPE svg PUBLIC "-//W3C//DTD SVG 1.0//EN" "http://www.w3.org/TR/2001/REC-SVG-20010904/DTD/svg10.dtd">
<svg version="1.0" id="Layer_1" xmlns="http://www.w3.org/2000/svg" xmlns:xlink="http://www.w3.org/1999/xlink" x="0px" y="0px"
	 viewBox="0.0000305 181.6641846 792 248.6716309" enable-background="new 0.0000305 181.6641846 792 248.6716309"
	 xml:space="preserve">
<g>
	<path fill="#1BB580" d="M66.6572266,277.371582v-0.1362305c0-10.4404297,7.9838867-19.0380859,19.1748047-19.0380859
		c6.8920898,0,11.190918,2.3198242,14.6030273,6.1411133l-6.3461914,6.8237305
		c-2.3203125-2.456543-4.6401367-4.0258789-8.3251953-4.0258789c-5.1855469,0-8.8706055,4.5717773-8.8706055,9.9624023v0.1367188
		c0,5.5952148,3.6166992,10.0991211,9.2802734,10.0991211c3.4799805,0,5.8686523-1.5014648,8.3930664-3.8896484l6.0732422,6.1411133
		c-3.5483398,3.8896484-7.6425781,6.6875-14.9438477,6.6875C74.7094727,296.2734375,66.6572266,287.8120117,66.6572266,277.371582z"
		/>
	<path fill="#1BB580" d="M104.6035156,277.371582v-0.1362305c0-10.4404297,7.4375-19.0380859,18.0825195-19.0380859
		c12.2143555,0,17.8100586,9.4848633,17.8100586,19.8569336c0,0.8188477-0.0683594,1.7739258-0.1367188,2.7294922h-25.4521484
		c1.0234375,4.7084961,4.2988281,7.1645508,8.9389648,7.1645508c3.4799805,0,6.0048828-1.0917969,8.8706055-3.7529297
		l5.9370117,5.2543945c-3.4121094,4.230957-8.3251953,6.8237305-14.9438477,6.8237305
		C112.7236328,296.2734375,104.6035156,288.5625,104.6035156,277.371582z M130.3969727,274.3007812
		c-0.6142578-4.6396484-3.34375-7.7788086-7.7109375-7.7788086c-4.2988281,0-7.0966797,3.0708008-7.9155273,7.7788086H130.3969727z"
		/>
	<path fill="#1BB580" d="M148.2041016,258.8793945h10.3720703v5.1860352
		c2.3881836-3.0708008,5.4589844-5.8681641,10.7133789-5.8681641c7.847168,0,12.4189453,5.1855469,12.4189453,13.5791016v23.6782227
		h-10.3720703v-20.402832c0-4.9130859-2.3198242-7.4379883-6.277832-7.4379883
		c-3.9575195,0-6.4824219,2.5249023-6.4824219,7.4379883v20.402832h-10.3720703V258.8793945z"/>
	<path fill="#1BB580" d="M192.4194336,285.0825195V267.75h-4.3671875v-8.8706055h4.3671875v-9.3486328h10.3720703v9.3486328
		h8.5976562V267.75h-8.5976562v15.6264648c0,2.3881836,1.0234375,3.5483398,3.3432617,3.5483398
		c1.9111328,0,3.6166992-0.4775391,5.1181641-1.2963867v8.324707c-2.1835938,1.296875-4.7084961,2.1157227-8.1884766,2.1157227
		C196.7182617,296.0688477,192.4194336,293.5439453,192.4194336,285.0825195z"/>
	<path fill="#1BB580" d="M219.0302734,258.8793945h10.3720703v7.3696289
		c2.1152344-5.0498047,5.5273438-8.3251953,11.668457-8.0517578v10.8496094h-0.5458984
		c-6.8920898,0-11.1225586,4.1621094-11.1225586,12.8964844v13.5112305h-10.3720703V258.8793945z"/>
	<path fill="#1BB580" d="M244.7617188,277.371582v-0.1362305c0-10.4404297,7.4375-19.0380859,18.0825195-19.0380859
		c12.2143555,0,17.8100586,9.4848633,17.8100586,19.8569336c0,0.8188477-0.0683594,1.7739258-0.1367188,2.7294922h-25.4521484
		c1.0234375,4.7084961,4.2988281,7.1645508,8.9389648,7.1645508c3.4799805,0,6.0048828-1.0917969,8.8706055-3.7529297
		l5.9370117,5.2543945c-3.4121094,4.230957-8.3251953,6.8237305-14.9438477,6.8237305
		C252.8818359,296.2734375,244.7617188,288.5625,244.7617188,277.371582z M270.5551758,274.3007812
		c-0.6142578-4.6396484-3.34375-7.7788086-7.7109375-7.7788086c-4.2988281,0-7.0966797,3.0708008-7.9155273,7.7788086H270.5551758z"
		/>
	<path fill="#1BB580" d="M310.6064453,267.75h-4.2988281v-8.5292969h4.2988281v-2.3203125
		c0-4.0258789,1.0239258-6.9599609,2.9345703-8.8706055s4.7080078-2.8662109,8.3930664-2.8662109
		c3.2753906,0,5.4589844,0.409668,7.3696289,1.0239258v8.5976562c-1.5009766-0.5458984-2.934082-0.887207-4.7084961-0.887207
		c-2.3881836,0-3.7529297,1.2285156-3.7529297,3.9580078v1.4331055h8.3930664V267.75h-8.2568359v27.7045898h-10.3720703V267.75z"/>
	<path fill="#1BB580" d="M332.4404297,277.371582v-0.1362305c0-10.5087891,8.4609375-19.0380859,19.8569336-19.0380859
		c11.3271484,0,19.7202148,8.3930664,19.7202148,18.9013672v0.1367188c0,10.5083008-8.4609375,19.0380859-19.8569336,19.0380859
		C340.8334961,296.2734375,332.4404297,287.8803711,332.4404297,277.371582z M361.7822266,277.371582v-0.1362305
		c0-5.390625-3.8896484-10.0991211-9.621582-10.0991211c-5.9365234,0-9.4848633,4.5717773-9.4848633,9.9624023v0.1367188
		c0,5.390625,3.8896484,10.0991211,9.621582,10.0991211C358.2338867,287.3344727,361.7822266,282.7626953,361.7822266,277.371582z"
		/>
	<path fill="#1BB580" d="M379.5209961,258.8793945h10.3720703v7.3696289
		c2.1152344-5.0498047,5.5273438-8.3251953,11.668457-8.0517578v10.8496094h-0.5458984
		c-6.8916016,0-11.1225586,4.1621094-11.1225586,12.8964844v13.5112305h-10.3720703V258.8793945z"/>
	<path fill="#1BB580" d="M428.5117188,245.6416016h10.3730469v18.4238281
		c2.3876953-3.0708008,5.4589844-5.8681641,10.7128906-5.8681641c7.8476562,0,12.4189453,5.1855469,12.4189453,13.5791016
		v23.6782227h-10.3720703v-20.402832c0-4.9130859-2.3203125-7.4379883-6.2773438-7.4379883
		c-3.9580078,0-6.4824219,2.5249023-6.4824219,7.4379883v20.402832h-10.3730469V245.6416016z"/>
	<path fill="#1BB580" d="M470.7480469,282.5576172v-23.6782227h10.3720703v20.402832
		c0,4.9130859,2.3203125,7.4379883,6.2783203,7.4379883c3.9570312,0,6.4824219-2.5249023,6.4824219-7.4379883v-20.402832h10.3720703
		v36.5751953h-10.3720703v-5.1860352c-2.3886719,3.0708008-5.4589844,5.8681641-10.7138672,5.8681641
		C475.3203125,296.1367188,470.7480469,290.9511719,470.7480469,282.5576172z"/>
	<path fill="#1BB580" d="M513.53125,258.8793945h10.3710938v5.1860352
		c2.3886719-3.0708008,5.5273438-5.8681641,10.7822266-5.8681641c4.7763672,0,8.3925781,2.1152344,10.3037109,5.7998047
		c3.2070312-3.7529297,7.0283203-5.7998047,12.0097656-5.7998047c7.7109375,0,12.3505859,4.6396484,12.3505859,13.4423828
		v23.8149414h-10.3720703v-20.402832c0-4.9130859-2.1835938-7.4379883-6.0732422-7.4379883
		s-6.2773438,2.5249023-6.2773438,7.4379883v20.402832h-10.3720703v-20.402832c0-4.9130859-2.1835938-7.4379883-6.0732422-7.4379883
		s-6.2783203,2.5249023-6.2783203,7.4379883v20.402832H513.53125V258.8793945z"/>
	<path fill="#1BB580" d="M576.7148438,277.2353516v-0.1367188c0-12.2143555,7.984375-18.9013672,16.6503906-18.9013672
		c5.5273438,0,8.9394531,2.5244141,11.3955078,5.4589844v-18.0146484h10.3720703v49.8129883h-10.3720703v-5.2543945
		c-2.5244141,3.4121094-6.0048828,5.9365234-11.3955078,5.9365234
		C584.8359375,296.1367188,576.7148438,289.449707,576.7148438,277.2353516z M604.8974609,277.2353516v-0.1367188
		c0-6.0732422-4.0263672-10.0991211-8.8710938-10.0991211s-8.9384766,3.9580078-8.9384766,10.0991211v0.1367188
		c0,6.0732422,4.09375,10.0991211,8.9384766,10.0991211S604.8974609,283.3085938,604.8974609,277.2353516z"/>
	<path fill="#1BB580" d="M622.2265625,284.9462891v-0.1367188c0-7.9838867,6.0722656-11.668457,14.7382812-11.668457
		c3.6855469,0,6.3466797,0.6137695,8.9394531,1.5009766v-0.6137695c0-4.2993164-2.6611328-6.6875-7.8476562-6.6875
		c-3.9570312,0-6.7548828,0.7504883-10.0986328,1.9790039l-2.5927734-7.9155273
		c4.0253906-1.7744141,7.9833984-2.9345703,14.1933594-2.9345703c5.6630859,0,9.7578125,1.5014648,12.3505859,4.0947266
		c2.7294922,2.7294922,3.9580078,6.7553711,3.9580078,11.668457v21.2216797h-10.03125v-3.9575195
		c-2.5244141,2.7973633-6.0048828,4.6396484-11.0546875,4.6396484
		C627.8896484,296.1367188,622.2265625,292.1791992,622.2265625,284.9462891z M646.0410156,282.5576172v-1.8422852
		c-1.7744141-0.8188477-4.0947266-1.3647461-6.6191406-1.3647461c-4.4355469,0-7.1650391,1.7744141-7.1650391,5.0498047v0.1362305
		c0,2.7978516,2.3203125,4.4355469,5.6640625,4.4355469C642.765625,288.972168,646.0410156,286.3105469,646.0410156,282.5576172z"/>
	<path fill="#1BB580" d="M666.1767578,285.0825195V267.75h-4.3671875v-8.8706055h4.3671875v-9.3486328h10.3720703v9.3486328
		h8.5986328V267.75h-8.5986328v15.6264648c0,2.3881836,1.0234375,3.5483398,3.34375,3.5483398
		c1.9111328,0,3.6171875-0.4775391,5.1181641-1.2963867v8.324707c-2.1835938,1.296875-4.7080078,2.1157227-8.1884766,2.1157227
		C670.4765625,296.0688477,666.1767578,293.5439453,666.1767578,285.0825195z"/>
	<path fill="#1BB580" d="M690.6054688,284.9462891v-0.1367188c0-7.9838867,6.0722656-11.668457,14.7382812-11.668457
		c3.6855469,0,6.3466797,0.6137695,8.9394531,1.5009766v-0.6137695c0-4.2993164-2.6611328-6.6875-7.8476562-6.6875
		c-3.9570312,0-6.7548828,0.7504883-10.0986328,1.9790039l-2.5927734-7.9155273
		c4.0253906-1.7744141,7.9833984-2.9345703,14.1933594-2.9345703c5.6630859,0,9.7578125,1.5014648,12.3505859,4.0947266
		c2.7294922,2.7294922,3.9580078,6.7553711,3.9580078,11.668457v21.2216797h-10.03125v-3.9575195
		c-2.5244141,2.7973633-6.0048828,4.6396484-11.0546875,4.6396484
		C696.2685547,296.1367188,690.6054688,292.1791992,690.6054688,284.9462891z M714.4199219,282.5576172v-1.8422852
		c-1.7744141-0.8188477-4.0947266-1.3647461-6.6191406-1.3647461c-4.4355469,0-7.1650391,1.7744141-7.1650391,5.0498047v0.1362305
		c0,2.7978516,2.3203125,4.4355469,5.6640625,4.4355469C711.1445312,288.972168,714.4199219,286.3105469,714.4199219,282.5576172z"
		/>
</g>
<g>
	<g>
		<polygon fill="#1BB580" points="214.0257568,430.3358154 206.9689178,420.5925293 298.8117065,354.0811462 
			779.9696655,354.0811462 779.9696655,193.6945038 12.0303497,193.6945038 12.0303497,354.0811462 190.4742126,354.0811462 
			190.4742126,366.1114502 0.0000305,366.1114502 0.0000305,181.6641846 792,181.6641846 792,366.1114502 302.7121582,366.1114502 
					"/>
	</g>
</g>
</svg>
