<?xml version="1.0" encoding="utf-8"?>
<!-- Generator: Adobe Illustrator 18.0.0, SVG Export Plug-In . SVG Version: 6.00 Build 0)  -->
<!DOCTYPE svg PUBLIC "-//W3C//DTD SVG 1.0//EN" "http://www.w3.org/TR/2001/REC-SVG-20010904/DTD/svg10.dtd">
<svg version="1.0" id="Layer_1" xmlns="http://www.w3.org/2000/svg" xmlns:xlink="http://www.w3.org/1999/xlink" x="0px" y="0px"
	 viewBox="298.6698608 638.3726807 791.9998779 248.6716614"
	 enable-background="new 298.6698608 638.3726807 791.9998779 248.6716614" xml:space="preserve">
<g>
	<g>
		<path fill="#FFFFFF" d="M364.8778992,733.9442139v-0.1362305c0-10.4404297,7.9838867-19.0380859,19.1748047-19.0380859
			c6.8920898,0,11.190918,2.3198242,14.6030273,6.1411133l-6.3461914,6.8237305
			c-2.3203125-2.456543-4.6401367-4.0258789-8.3251953-4.0258789c-5.1855469,0-8.8706055,4.5717773-8.8706055,9.9624023v0.1367188
			c0,5.5952148,3.6166992,10.0991211,9.2802734,10.0991211c3.4799805,0,5.8686523-1.5014648,8.3930664-3.8896484
			l6.0732422,6.1411133c-3.5483398,3.8896484-7.6425781,6.6875-14.9438477,6.6875
			C372.9301453,752.8460693,364.8778992,744.3846436,364.8778992,733.9442139z"/>
		<path fill="#FFFFFF" d="M402.8241882,733.9442139v-0.1362305c0-10.4404297,7.4375-19.0380859,18.0825195-19.0380859
			c12.2143555,0,17.8100586,9.4848633,17.8100586,19.8569336c0,0.8188477-0.0683594,1.7739258-0.1367188,2.7294922h-25.4521484
			c1.0234375,4.7084961,4.2988281,7.1645508,8.9389648,7.1645508c3.4799805,0,6.0048828-1.0917969,8.8706055-3.7529297
			l5.9370117,5.2543945c-3.4121094,4.230957-8.3251953,6.8237305-14.9438477,6.8237305
			C410.9443054,752.8460693,402.8241882,745.1351318,402.8241882,733.9442139z M428.6176453,730.8734131
			c-0.6142578-4.6396484-3.34375-7.7788086-7.7109375-7.7788086c-4.2988281,0-7.0966797,3.0708008-7.9155273,7.7788086H428.6176453z
			"/>
		<path fill="#FFFFFF" d="M446.4247742,715.4520264h10.3720703v5.1860352
			c2.3881836-3.0708008,5.4589844-5.8681641,10.7133789-5.8681641c7.847168,0,12.4189453,5.1855469,12.4189453,13.5791016
			v23.6782227h-10.3720703v-20.402832c0-4.9130859-2.3198242-7.4379883-6.277832-7.4379883
			c-3.9575195,0-6.4824219,2.5249023-6.4824219,7.4379883v20.402832h-10.3720703V715.4520264z"/>
		<path fill="#FFFFFF" d="M490.6401062,741.6551514v-17.3325195h-4.3671875v-8.8706055h4.3671875v-9.3486328h10.3720703v9.3486328
			h8.5976562v8.8706055h-8.5976562v15.6264648c0,2.3881836,1.0234375,3.5483398,3.3432617,3.5483398
			c1.9111328,0,3.6166992-0.4775391,5.1181641-1.2963867v8.324707c-2.1835938,1.296875-4.7084961,2.1157227-8.1884766,2.1157227
			C494.9389343,752.6414795,490.6401062,750.1165771,490.6401062,741.6551514z"/>
		<path fill="#FFFFFF" d="M517.2509766,715.4520264h10.3720703v7.3696289
			c2.1152344-5.0498047,5.5273438-8.3251953,11.668457-8.0517578v10.8496094h-0.5458984
			c-6.8920898,0-11.1225586,4.1621094-11.1225586,12.8964844v13.5112305h-10.3720703V715.4520264z"/>
		<path fill="#FFFFFF" d="M542.9824219,733.9442139v-0.1362305c0-10.4404297,7.4375-19.0380859,18.0825195-19.0380859
			c12.2143555,0,17.8100586,9.4848633,17.8100586,19.8569336c0,0.8188477-0.0683594,1.7739258-0.1367188,2.7294922h-25.4521484
			c1.0234375,4.7084961,4.2988281,7.1645508,8.9389648,7.1645508c3.4799805,0,6.0048828-1.0917969,8.8706055-3.7529297
			l5.9370117,5.2543945c-3.4121094,4.230957-8.3251953,6.8237305-14.9438477,6.8237305
			C551.1025391,752.8460693,542.9824219,745.1351318,542.9824219,733.9442139z M568.7758789,730.8734131
			c-0.6142578-4.6396484-3.34375-7.7788086-7.7109375-7.7788086c-4.2988281,0-7.0966797,3.0708008-7.9155273,7.7788086H568.7758789z
			"/>
		<path fill="#FFFFFF" d="M608.8271484,724.3226318h-4.2988281v-8.5292969h4.2988281v-2.3203125
			c0-4.0258789,1.0239258-6.9599609,2.9345703-8.8706055s4.7080078-2.8662109,8.3930664-2.8662109
			c3.2753906,0,5.4589844,0.409668,7.3696289,1.0239258v8.5976562c-1.5009766-0.5458984-2.934082-0.887207-4.7084961-0.887207
			c-2.3881836,0-3.7529297,1.2285156-3.7529297,3.9580078v1.4331055h8.3930664v8.4609375h-8.2568359v27.7045898h-10.3720703
			V724.3226318z"/>
		<path fill="#FFFFFF" d="M630.6611328,733.9442139v-0.1362305c0-10.5087891,8.4609375-19.0380859,19.8569336-19.0380859
			c11.3271484,0,19.7202148,8.3930664,19.7202148,18.9013672v0.1367188c0,10.5083008-8.4609375,19.0380859-19.8569336,19.0380859
			C639.0541992,752.8460693,630.6611328,744.4530029,630.6611328,733.9442139z M660.0029297,733.9442139v-0.1362305
			c0-5.390625-3.8896484-10.0991211-9.621582-10.0991211c-5.9365234,0-9.4848633,4.5717773-9.4848633,9.9624023v0.1367188
			c0,5.390625,3.8896484,10.0991211,9.621582,10.0991211C656.4545898,743.9071045,660.0029297,739.3353271,660.0029297,733.9442139z
			"/>
		<path fill="#FFFFFF" d="M677.7416992,715.4520264h10.3720703v7.3696289
			c2.1152344-5.0498047,5.5273438-8.3251953,11.668457-8.0517578v10.8496094h-0.5458984
			c-6.8916016,0-11.1225586,4.1621094-11.1225586,12.8964844v13.5112305h-10.3720703V715.4520264z"/>
		<path fill="#FFFFFF" d="M726.7324219,702.2142334h10.3730469v18.4238281
			c2.3876953-3.0708008,5.4589844-5.8681641,10.7128906-5.8681641c7.8476562,0,12.4189453,5.1855469,12.4189453,13.5791016
			v23.6782227h-10.3720703v-20.402832c0-4.9130859-2.3203125-7.4379883-6.2773438-7.4379883
			c-3.9580078,0-6.4824219,2.5249023-6.4824219,7.4379883v20.402832h-10.3730469V702.2142334z"/>
		<path fill="#FFFFFF" d="M768.96875,739.130249v-23.6782227h10.3720703v20.402832
			c0,4.9130859,2.3203125,7.4379883,6.2783203,7.4379883c3.9570312,0,6.4824219-2.5249023,6.4824219-7.4379883v-20.402832
			h10.3720703v36.5751953h-10.3720703v-5.1860352c-2.3886719,3.0708008-5.4589844,5.8681641-10.7138672,5.8681641
			C773.5410156,752.7093506,768.96875,747.5238037,768.96875,739.130249z"/>
		<path fill="#FFFFFF" d="M811.7519531,715.4520264h10.3710938v5.1860352
			c2.3886719-3.0708008,5.5273438-5.8681641,10.7822266-5.8681641c4.7763672,0,8.3925781,2.1152344,10.3037109,5.7998047
			c3.2070312-3.7529297,7.0283203-5.7998047,12.0097656-5.7998047c7.7109375,0,12.3505859,4.6396484,12.3505859,13.4423828
			v23.8149414h-10.3720703v-20.402832c0-4.9130859-2.1835938-7.4379883-6.0732422-7.4379883
			s-6.2773438,2.5249023-6.2773438,7.4379883v20.402832h-10.3720703v-20.402832
			c0-4.9130859-2.1835938-7.4379883-6.0732422-7.4379883s-6.2783203,2.5249023-6.2783203,7.4379883v20.402832h-10.3710938
			V715.4520264z"/>
		<path fill="#FFFFFF" d="M874.9355469,733.8079834v-0.1367188c0-12.2143555,7.984375-18.9013672,16.6503906-18.9013672
			c5.5273438,0,8.9394531,2.5244141,11.3955078,5.4589844v-18.0146484h10.3720703v49.8129883h-10.3720703v-5.2543945
			c-2.5244141,3.4121094-6.0048828,5.9365234-11.3955078,5.9365234
			C883.0566406,752.7093506,874.9355469,746.0223389,874.9355469,733.8079834z M903.1181641,733.8079834v-0.1367188
			c0-6.0732422-4.0263672-10.0991211-8.8710938-10.0991211s-8.9384766,3.9580078-8.9384766,10.0991211v0.1367188
			c0,6.0732422,4.09375,10.0991211,8.9384766,10.0991211S903.1181641,739.8812256,903.1181641,733.8079834z"/>
		<path fill="#FFFFFF" d="M920.4472656,741.5189209v-0.1367188c0-7.9838867,6.0722656-11.668457,14.7382812-11.668457
			c3.6855469,0,6.3466797,0.6137695,8.9394531,1.5009766v-0.6137695c0-4.2993164-2.6611328-6.6875-7.8476562-6.6875
			c-3.9570312,0-6.7548828,0.7504883-10.0986328,1.9790039l-2.5927734-7.9155273
			c4.0253906-1.7744141,7.9833984-2.9345703,14.1933594-2.9345703c5.6630859,0,9.7578125,1.5014648,12.3505859,4.0947266
			c2.7294922,2.7294922,3.9580078,6.7553711,3.9580078,11.668457v21.2216797h-10.03125v-3.9575195
			c-2.5244141,2.7973633-6.0048828,4.6396484-11.0546875,4.6396484
			C926.1103516,752.7093506,920.4472656,748.7518311,920.4472656,741.5189209z M944.2617188,739.130249v-1.8422852
			c-1.7744141-0.8188477-4.0947266-1.3647461-6.6191406-1.3647461c-4.4355469,0-7.1650391,1.7744141-7.1650391,5.0498047v0.1362305
			c0,2.7978516,2.3203125,4.4355469,5.6640625,4.4355469C940.9863281,745.5447998,944.2617188,742.8831787,944.2617188,739.130249z"
			/>
		<path fill="#FFFFFF" d="M964.3974609,741.6551514v-17.3325195h-4.3671875v-8.8706055h4.3671875v-9.3486328h10.3720703v9.3486328
			h8.5986328v8.8706055h-8.5986328v15.6264648c0,2.3881836,1.0234375,3.5483398,3.34375,3.5483398
			c1.9111328,0,3.6171875-0.4775391,5.1181641-1.2963867v8.324707c-2.1835938,1.296875-4.7080078,2.1157227-8.1884766,2.1157227
			C968.6972656,752.6414795,964.3974609,750.1165771,964.3974609,741.6551514z"/>
		<path fill="#FFFFFF" d="M988.8261719,741.5189209v-0.1367188c0-7.9838867,6.0722656-11.668457,14.7382812-11.668457
			c3.6855469,0,6.3466797,0.6137695,8.9394531,1.5009766v-0.6137695c0-4.2993164-2.6611328-6.6875-7.8476562-6.6875
			c-3.9570312,0-6.7548828,0.7504883-10.0986328,1.9790039l-2.5927734-7.9155273
			c4.0253906-1.7744141,7.9833984-2.9345703,14.1933594-2.9345703c5.6630859,0,9.7578125,1.5014648,12.3505859,4.0947266
			c2.7294922,2.7294922,3.9580078,6.7553711,3.9580078,11.668457v21.2216797h-10.03125v-3.9575195
			c-2.5244141,2.7973633-6.0048828,4.6396484-11.0546875,4.6396484
			C994.4892578,752.7093506,988.8261719,748.7518311,988.8261719,741.5189209z M1012.640625,739.130249v-1.8422852
			c-1.7744141-0.8188477-4.0947266-1.3647461-6.6191406-1.3647461c-4.4355469,0-7.1650391,1.7744141-7.1650391,5.0498047v0.1362305
			c0,2.7978516,2.3203125,4.4355469,5.6640625,4.4355469C1009.3652344,745.5447998,1012.640625,742.8831787,1012.640625,739.130249z
			"/>
	</g>
	<g>
		<g>
			<polygon fill="#FFFFFF" points="512.6955566,887.0443115 505.6387329,877.3010254 597.4815674,810.7896729 
				1078.6395264,810.7896729 1078.6395264,650.4029541 310.7001953,650.4029541 310.7001953,810.7896729 489.144043,810.7896729 
				489.144043,822.8199463 298.6698608,822.8199463 298.6698608,638.3726807 1090.6697998,638.3726807 1090.6697998,822.8199463 
				601.381958,822.8199463 			"/>
		</g>
	</g>
</g>
</svg>
