<?xml version="1.0" encoding="utf-8"?>
<!-- Generator: Adobe Illustrator 18.0.0, SVG Export Plug-In . SVG Version: 6.00 Build 0)  -->
<!DOCTYPE svg PUBLIC "-//W3C//DTD SVG 1.0//EN" "http://www.w3.org/TR/2001/REC-SVG-20010904/DTD/svg10.dtd">
<svg version="1.0" id="Layer_1" xmlns="http://www.w3.org/2000/svg" xmlns:xlink="http://www.w3.org/1999/xlink" x="0px" y="0px"
	 viewBox="0 0 300 65.5229034" enable-background="new 0 0 300 65.5229034" xml:space="preserve">
<g>
	<g>
		<g>
			<g>
				<rect x="12.0893154" y="0.0000041" width="9.6508999" height="65.5229034"/>
			</g>
			<g>
				<rect x="57.712368" y="0.0000041" width="9.6504002" height="65.5229034"/>
			</g>
			<g>
				<rect x="0.0000046" y="41.9232864" width="79.4554977" height="9.6504002"/>
			</g>
			<g>
				<rect x="0.0000046" y="13.4844017" width="79.4554977" height="9.6503"/>
			</g>
		</g>
	</g>
	<g>
		<g>
			<g>
				<g>
					<path d="M111.2470016,4.3867002c0-0.5195003,0.3788986-0.8623002,0.9511948-0.8623002h9.3633041
						c0.5858994,0,0.9707031,0.3427999,0.9707031,0.8623002v23.0381012c0,0.3529987,0.176796,0.5248985,0.5644989,0.5248985
						h24.7342911c0.401413,0,0.588913-0.1718998,0.588913-0.5248985V4.3867002c0-0.5195003,0.3983917-0.8623002,0.9579926-0.8623002
						h9.3690948c0.5644989,0,0.9454041,0.3427999,0.9454041,0.8623002v56.7538986
						c0,0.5156021-0.3809052,0.8584023-0.9454041,0.8584023h-9.3690948c-0.5596008,0-0.9579926-0.3428001-0.9579926-0.8584023
						V37.5761986c0-0.3432999-0.1875-0.5151978-0.588913-0.5151978h-24.7342911
						c-0.3877029,0-0.5644989,0.1718979-0.5644989,0.5151978v23.5643997c0,0.5156021-0.3848038,0.8584023-0.9707031,0.8584023
						h-9.3633041c-0.5722961,0-0.9511948-0.3428001-0.9511948-0.8584023V4.3867002z"/>
				</g>
			</g>
			<g>
				<g>
					<path d="M223.2519073,61.9990005c-0.7666016,0-1.1445007-0.2554016-1.5351105-0.8584023l-13.0868988-19.8725967h-0.1884918
						l-13.1953125,19.8725967c-0.3691864,0.6030006-0.7529907,0.8584023-1.5351868,0.8584023h-10.2969055
						c-0.6728058,0-0.969696-0.5142021-0.5722046-1.1206017l19.3916016-29.1488991L184.2626953,4.6406002
						C183.8838043,4.0351,184.1660004,3.5244,184.8408051,3.5244h10.3125c0.7626953,0,1.1376953,0.2544,1.5350952,0.8623002
						l11.753006,17.7070007h0.1884918l11.7557983-17.7070007C220.7617035,3.7788,221.152298,3.5244,221.9120941,3.5244h10.3213043
						c0.6660004,0,0.9629059,0.5107,0.5791016,1.1162002l-17.9472961,27.0888996l19.3672028,29.1488991
						c0.4032898,0.6063995,0.1024933,1.1206017-0.5615082,1.1206017H223.2519073z"/>
				</g>
			</g>
			<g>
				<g>
					<path d="M257.3818054,4.3867002c0-0.5195003,0.3769836-0.8623002,0.9414062-0.8623002h9.3730774
						c0.5644226,0,0.9707031,0.3427999,0.9707031,0.8623002v47.9761009c0,0.346199,0.1699219,0.519001,0.5644226,0.519001h29.820282
						c0.5664062,0,0.9483032,0.3422966,0.9483032,0.8540001v7.4047966c0,0.5156021-0.381897,0.8584023-0.9483032,0.8584023
						h-40.7284851c-0.5644226,0-0.9414062-0.3428001-0.9414062-0.8584023V4.3867002z"/>
				</g>
			</g>
		</g>
	</g>
</g>
</svg>
