<?xml version="1.0" encoding="utf-8"?>
<!-- Generator: Adobe Illustrator 18.0.0, SVG Export Plug-In . SVG Version: 6.00 Build 0)  -->
<!DOCTYPE svg PUBLIC "-//W3C//DTD SVG 1.0//EN" "http://www.w3.org/TR/2001/REC-SVG-20010904/DTD/svg10.dtd">
<svg version="1.0" id="Layer_1" xmlns="http://www.w3.org/2000/svg" xmlns:xlink="http://www.w3.org/1999/xlink" x="0px" y="0px"
	 viewBox="0 0 45.2129021 45.9150505" enable-background="new 0 0 45.2129021 45.9150505" xml:space="preserve">
<g>
	<g>
		<path fill="#FEDBB4" d="M22.6152,0.70215h-0.0077991h-0.0088005c-6.2245998,0-11.903286,2.54-15.977499,6.6220999
			c-4.0829997,4.0742002-6.6230998,9.7578011-6.6210999,15.9843006c-0.002,6.2276001,2.5381,11.9102001,6.6210999,15.9853992
			c4.0732131,4.0810013,9.7528992,6.6211014,15.9764996,6.6211014h0.0098h0.0088005
			c6.2226982,0,11.9022999-2.5401001,15.9755993-6.6211014c4.0839996-4.0751991,6.6230011-9.7577991,6.6210976-15.9853992
			h-4.9550972h-4.9541016c-0.0028992,3.5224991-1.4130974,6.6651001-3.7196999,8.9784985
			c-2.3125,2.3046989-5.4560986,3.7159004-8.9765987,3.7178001c-3.522501-0.0018997-6.665-1.4131012-8.9785004-3.7178001
			c-2.3056993-2.3133984-3.7157993-5.4559994-3.7187996-8.9784985c0.0030003-3.5214996,1.4131002-6.6650009,3.7187996-8.9775
			c2.3135004-2.305706,5.4559994-3.7158003,8.9785004-3.7188005c3.5205002,0.0030003,6.6640987,1.4130945,8.9765987,3.7188005
			c2.3066025,2.312499,3.7168007,5.4560003,3.7196999,8.9775h4.9541016h4.9550972
			c0.0019035-6.2264996-2.5370979-11.9101-6.6210976-15.9843006C34.5185013,3.24315,28.8379002,0.70215,22.6152,0.70215"/>
	</g>
	<g>
		<path d="M11.6679506,29.6395988c0,1.1602001,0.9429007,2.1035004,2.1040001,2.1035004c1.1587,0,2.1025-0.9433002,2.1025-2.1035004
			s-0.9438-2.1044998-2.1025-2.1044998C12.6108513,27.535099,11.6679506,28.4793987,11.6679506,29.6395988"/>
	</g>
	<g>
		<path d="M22.606451,29.6395988c0,0.6953011-0.5669003,1.2616997-1.2621937,1.2616997
			c-0.6958065,0-1.2627068-0.5663986-1.2627068-1.2616997c0-0.6963005,0.5669003-1.2626991,1.2627068-1.2626991
			C22.0395508,28.3768997,22.606451,28.9432983,22.606451,29.6395988 M19.2402592,29.6395988
			c0,1.1602001,0.9437923,2.1035004,2.1039982,2.1035004c1.1590939,0,2.1030006-0.9433002,2.1030006-2.1035004
			s-0.9439068-2.1044998-2.1030006-2.1044998C20.1840515,27.535099,19.2402592,28.4793987,19.2402592,29.6395988"/>
	</g>
	<g>
		<path d="M23.447258,32.7070007h-4.2066078c-0.6961994,0-1.2621994,0.4432983-1.2621994,1.1395988v0.5439987h0.8409004v-0.5439987
			c0-0.232399,0.1889076-0.2988014,0.421299-0.2988014h4.2066078c0.2323933,0,0.4213924,0.0664024,0.4213924,0.2988014v0.5439987
			h0.8407993v-0.5439987C24.7094498,33.1502991,24.1435509,32.7070007,23.447258,32.7070007"/>
	</g>
	<g>
		<path d="M19.9236126,21.7138004h-4.2066078c-0.6962004,0-1.2622004,0.4433002-1.2622004,1.1395988v3.5441895h0.8409004v-3.5441895
			c0-0.232399,0.1889076-0.2987995,0.4212999-0.2987995h4.2066078c0.2323914,0,0.4213924,0.0664005,0.4213924,0.2987995v3.5441895
			h0.8407993v-3.5441895C21.1858044,22.1571007,20.6199036,21.7138004,19.9236126,21.7138004"/>
	</g>
	<g>
		<path d="M28.91745,28.3778992c0.6942997,0,1.2616997,0.5653992,1.2616997,1.2616997s-0.5674,1.2616997-1.2616997,1.2616997
			c-0.6962986,0-1.2636986-0.5653992-1.2636986-1.2616997S28.2211514,28.3778992,28.91745,28.3778992 M26.8129501,29.6395988
			c0,1.1602001,0.9443073,2.1035004,2.1044998,2.1035004c1.1582012,0,2.1025009-0.9433002,2.1025009-2.1035004
			S30.0756512,27.535099,28.91745,27.535099C27.7572575,27.535099,26.8129501,28.4793987,26.8129501,29.6395988"/>
	</g>
	<g>
		<path d="M31.0199509,32.7070007h-4.2070007c-0.6963005,0-1.261692,0.4432983-1.261692,1.1395988v0.5439987h0.8407917v-0.5439987
			c0-0.232399,0.1895008-0.2988014,0.4209003-0.2988014h4.2070007c0.2314987,0,0.4209003,0.0664024,0.4209003,0.2988014v0.5439987
			H32.28265v-0.5439987C32.28265,33.1502991,31.716259,32.7070007,31.0199509,32.7070007"/>
	</g>
	<g>
		<path fill="#F9D02A" d="M15.0336504,29.6395988c0,0.6963005-0.5668993,1.2616997-1.2616997,1.2616997
			c-0.6962996,0-1.2631998-0.5653992-1.2631998-1.2616997s0.5669003-1.2616997,1.2631998-1.2616997
			C14.4667511,28.3778992,15.0336504,28.9432983,15.0336504,29.6395988"/>
	</g>
	<g>
		<path fill="#F9D02A" d="M22.606451,29.6395988c0,0.6963005-0.5669003,1.2616997-1.2616997,1.2616997
			c-0.6963005,0-1.2632008-0.5653992-1.2632008-1.2616997s0.5669003-1.2616997,1.2632008-1.2616997
			C22.0395508,28.3778992,22.606451,28.9432983,22.606451,29.6395988"/>
	</g>
	<g>
		<path fill="#F9D02A" d="M30.1794033,29.6395988c0,0.6963005-0.5668983,1.2616997-1.2616997,1.2616997
			c-0.6962986,0-1.2631989-0.5653992-1.2631989-1.2616997s0.5669003-1.2616997,1.2631989-1.2616997
			C29.612505,28.3778992,30.1794033,28.9432983,30.1794033,29.6395988"/>
	</g>
	<g>
		<path fill="#F9D02A" d="M19.7496185,18.2959423c0,0.9771023-0.795517,1.7705154-1.7705154,1.7705154
			c-0.9771023,0-1.7726212-0.7934132-1.7726212-1.7705154s0.7955189-1.7705173,1.7726212-1.7705173
			C18.9541016,16.525425,19.7496185,17.31884,19.7496185,18.2959423"/>
	</g>
	<g>
		<path d="M15.8744507,32.7070007h-4.2069998c-0.6957998,0-1.2616997,0.4432983-1.2616997,1.1395988v0.5439987h0.8407993v-0.5439987
			c0-0.232399,0.1890001-0.2988014,0.4209003-0.2988014h4.2069998c0.2320004,0,0.4209003,0.0664024,0.4209003,0.2988014v0.5439987
			h0.8412991v-0.5439987C17.1366501,33.1502991,16.5707512,32.7070007,15.8744507,32.7070007"/>
	</g>
	<g>
		<path fill="#020000" d="M18.33885,33.0243988c-0.2231998,0.1972008-0.3607998,0.4794998-0.3607998,0.8222008v0.5439987h0.8416996
			v-0.5439987c0-0.232399,0.1880016-0.297802,0.4200001-0.297802h1.1162014
			C19.6620502,33.4286957,18.987751,33.2518997,18.33885,33.0243988 M24.6747513,33.5594978
			c-0.2827015,0.0469017-0.5688,0.0860023-0.8579006,0.1142998c0.0321999,0.0430031,0.0513,0.0996017,0.0513,0.172802v0.5439987
			h0.8418007v-0.5439987C24.7099514,33.7450981,24.6977501,33.6493988,24.6747513,33.5594978"/>
	</g>
	<g>
		<path fill="#020000" d="M30.6742592,30.7938995c-0.371109,0.3085995-0.758709,0.5966988-1.161108,0.8633003
			C29.9936504,31.5145988,30.4037495,31.2040997,30.6742592,30.7938995"/>
	</g>
	<g>
		<path fill="#020000" d="M31.0199509,32.7070007h-3.4521008c-0.6133003,0.2645988-1.2481003,0.4813995-1.9081993,0.6464996
			c-0.0692997,0.1444969-0.1083927,0.3094978-0.1083927,0.4930992v0.5439987h0.8407917v-0.5439987
			c0-0.232399,0.1895008-0.2988014,0.4209003-0.2988014h4.2070007c0.2314987,0,0.4209003,0.0664024,0.4209003,0.2988014v0.5439987
			H32.28265v-0.5439987C32.28265,33.1502991,31.716259,32.7070007,31.0199509,32.7070007"/>
	</g>
	<g>
		<path fill="#020000" d="M12.1396513,28.3133984c-0.2950001,0.3614006-0.4722004,0.824295-0.4722004,1.3262005
			c0,1.1592007,0.9442997,2.1035004,2.1040001,2.1035004c0.4872999,0,0.9359999-0.1669998,1.2930002-0.4463005
			c-0.2378006-0.1737995-0.4698-0.3554001-0.6958008-0.5459003c-0.1781998,0.0967007-0.3808994,0.1504002-0.5971994,0.1504002
			c-0.6957998,0-1.2617006-0.5663986-1.2617006-1.2616997c0-0.2255993,0.0591002-0.4375,0.1631002-0.6201
			C12.4867506,28.789999,12.3085508,28.5545998,12.1396513,28.3133984"/>
	</g>
	<g>
		<path fill="#020000" d="M15.8744507,32.7070007h-4.2069998c-0.6957998,0-1.2616997,0.4432983-1.2616997,1.1395988v0.5439987
			h0.8407993v-0.5439987c0-0.232399,0.1890001-0.2988014,0.4209003-0.2988014h4.2069998
			c0.2320004,0,0.4209003,0.0664024,0.4209003,0.2988014v0.5439987h0.8412991v-0.5439987
			C17.1366501,33.1502991,16.5707512,32.7070007,15.8744507,32.7070007"/>
	</g>
	<g>
		<path d="M17.8202591,16.6127911c0.9277916,0,1.6830921,0.7549,1.6830921,1.6826954
			c0,0.9277058-0.7553005,1.6826057-1.6830921,1.6826057c-0.9282093,0-1.6831093-0.7549-1.6831093-1.6826057
			C16.1371498,17.367691,16.8920498,16.6127911,17.8202591,16.6127911 M17.8202591,20.819891
			c1.3920918,0,2.5239983-1.1318989,2.5239983-2.5234985c0-1.3924999-1.1319065-2.5244007-2.5239983-2.5244007
			c-1.3921089,0-2.5239086,1.1319008-2.5239086,2.5244007C15.2963505,19.6879921,16.4281502,20.819891,17.8202591,20.819891"/>
	</g>
	<g>
		<path fill="#010101" d="M34.5092583,26.4999523h-1.6582031c-0.2480469,0-0.4501953-0.2021484-0.4501953-0.4501953
			s0.2021484-0.4501953,0.4501953-0.4501953h1.2080078V13.0028811H10.0844536v13.046876
			c0,0.2480469-0.2016602,0.4501953-0.4501953,0.4501953S9.184063,26.2978039,9.184063,26.049757V12.5526857
			c0-0.2480469,0.2016602-0.4501953,0.4501953-0.4501953h24.875c0.2480469,0,0.4501953,0.2021484,0.4501953,0.4501953V26.049757
			C34.9594536,26.2978039,34.7573051,26.4999523,34.5092583,26.4999523z"/>
	</g>
	<g>
		<path fill="#010101" d="M31.8012505,15.4501467h-9.7294922c-0.2485352,0-0.4501953-0.2021484-0.4501953-0.4501953
			s0.2016602-0.4501953,0.4501953-0.4501953h9.7294922c0.2480469,0,0.4501953,0.2021484,0.4501953,0.4501953
			S32.0492973,15.4501467,31.8012505,15.4501467z"/>
	</g>
	<g>
		<path fill="#010101" d="M31.6967583,17.5751476h-3c-0.2480469,0-0.4501953-0.2021484-0.4501953-0.4501953
			s0.2021484-0.4501953,0.4501953-0.4501953h3c0.2480469,0,0.4501953,0.2021484,0.4501953,0.4501953
			S31.9448051,17.5751476,31.6967583,17.5751476z"/>
	</g>
	<g>
		<path fill="#010101" d="M31.6967583,19.7646008h-5.2294922c-0.2480469,0-0.4501953-0.2021484-0.4501953-0.4501953
			s0.2021484-0.4501953,0.4501953-0.4501953h5.2294922c0.2480469,0,0.4501953,0.2021484,0.4501953,0.4501953
			S31.9448051,19.7646008,31.6967583,19.7646008z"/>
	</g>
	<g>
		<path fill="#010101" d="M29.0307426,17.5751476h-4.3208008c-0.2485352,0-0.4501953-0.2021484-0.4501953-0.4501953
			s0.2016602-0.4501953,0.4501953-0.4501953h4.3208008c0.2480469,0,0.4501953,0.2021484,0.4501953,0.4501953
			S29.2787895,17.5751476,29.0307426,17.5751476z"/>
	</g>
	<g>
		<circle fill="#FFFFFF" cx="39.1333122" cy="16.4071941" r="1.209954"/>
		<path fill="#17B581" d="M39.1332817,18.1171398c-0.9433594,0-1.7099609-0.7666016-1.7099609-1.7099609
			c0-0.9433603,0.7666016-1.7099619,1.7099609-1.7099619s1.7099609,0.7666016,1.7099609,1.7099619
			C40.8432426,17.3505383,40.0766411,18.1171398,39.1332817,18.1171398z M39.1332817,15.697217
			c-0.3916016,0-0.7099609,0.3183603-0.7099609,0.7099619s0.3183594,0.7099609,0.7099609,0.7099609
			s0.7099609-0.3183594,0.7099609-0.7099609S39.5248833,15.697217,39.1332817,15.697217z"/>
	</g>
	<g>
		<circle fill="#FFFFFF" cx="41.5522575" cy="1.7089056" r="1.209"/>
		<path fill="#FBB03B" d="M41.552227,3.4179206c-0.9423828,0-1.7089844-0.7666016-1.7089844-1.7089845
			s0.7666016-1.7089844,1.7089844-1.7089844s1.7089844,0.7666016,1.7089844,1.7089844S42.4946098,3.4179206,41.552227,3.4179206z
			 M41.552227,0.9999517c-0.390625,0-0.7089844,0.3183594-0.7089844,0.7089844s0.3183594,0.7089845,0.7089844,0.7089845
			s0.7089844-0.3183594,0.7089844-0.7089845S41.942852,0.9999517,41.552227,0.9999517z"/>
	</g>
	<g>
		<circle fill="#FFFFFF" cx="35.7192192" cy="36.2109032" r="1.209946"/>
		<path fill="#FBB03B" d="M35.7192192,37.9198723c-0.9433594,0-1.7099609-0.7666016-1.7099609-1.7089844
			s0.7666016-1.7089844,1.7099609-1.7089844s1.7099609,0.7666016,1.7099609,1.7089844S36.6625786,37.9198723,35.7192192,37.9198723z
			 M35.7192192,35.5019035c-0.3916016,0-0.7099609,0.3183594-0.7099609,0.7089844s0.3183594,0.7089844,0.7099609,0.7089844
			s0.7099609-0.3183594,0.7099609-0.7089844S36.1108208,35.5019035,35.7192192,35.5019035z"/>
	</g>
	<g>
		<g>
			<line fill="#FFFFFF" x1="32.1713486" y1="1.7089" x2="34.47015" y2="1.7089"/>
			<path fill="#17B581" d="M34.4701958,2.2089362h-2.2988281c-0.2763672,0-0.5-0.2236329-0.5-0.5000001s0.2236328-0.5,0.5-0.5
				h2.2988281c0.2763672,0,0.5,0.2236328,0.5,0.5S34.746563,2.2089362,34.4701958,2.2089362z"/>
		</g>
		<g>
			<line fill="#FFFFFF" x1="33.3197517" y1="0.5605" x2="33.3197517" y2="2.8573999"/>
			<path fill="#17B581" d="M33.3198051,3.3573737c-0.2763672,0-0.5-0.2236328-0.5-0.5v-2.296875c0-0.2763672,0.2236328-0.5,0.5-0.5
				s0.5,0.2236328,0.5,0.5v2.296875C33.8198051,3.1337409,33.5961723,3.3573737,33.3198051,3.3573737z"/>
		</g>
	</g>
	<g>
		<g>
			<line fill="#FFFFFF" x1="5.7358508" y1="29.0038986" x2="8.0336514" y2="29.0038986"/>
			<path fill="#17B581" d="M8.0336723,29.5038586H5.7358208c-0.2763672,0-0.5-0.2236328-0.5-0.5s0.2236328-0.5,0.5-0.5h2.2978516
				c0.2763672,0,0.5,0.2236328,0.5,0.5S8.3100395,29.5038586,8.0336723,29.5038586z"/>
		</g>
		<g>
			<line fill="#FFFFFF" x1="6.8842583" y1="27.8554001" x2="6.8842583" y2="30.1522999"/>
			<path fill="#17B581" d="M6.8842583,30.6522961c-0.2763672,0-0.5-0.2236328-0.5-0.5v-2.296875c0-0.2763672,0.2236328-0.5,0.5-0.5
				s0.5,0.2236328,0.5,0.5v2.296875C7.3842583,30.4286633,7.1606255,30.6522961,6.8842583,30.6522961z"/>
		</g>
	</g>
	<g>
		<g>
			<line fill="#FFFFFF" x1="19.6117516" y1="7.5126939" x2="21.9096508" y2="7.5126939"/>
			<path fill="#FBB03B" d="M21.9096489,8.0126467h-2.2978516c-0.2763672,0-0.5-0.2236323-0.5-0.4999995s0.2236328-0.5,0.5-0.5
				h2.2978516c0.2763672,0,0.5,0.2236328,0.5,0.5S22.1860161,8.0126467,21.9096489,8.0126467z"/>
		</g>
		<g>
			<line fill="#FFFFFF" x1="20.7602577" y1="6.3641996" x2="20.7602577" y2="8.6610994"/>
			<path fill="#FBB03B" d="M20.7602348,9.1610842c-0.2763672,0-0.5-0.2236328-0.5-0.5V6.3642097c0-0.2763672,0.2236328-0.5,0.5-0.5
				s0.5,0.2236328,0.5,0.5v2.2968745C21.2602348,8.9374514,21.036602,9.1610842,20.7602348,9.1610842z"/>
		</g>
	</g>
	<g>
		<path fill="#010101" d="M31.7211494,28.2880001c-0.1454983-0.0566006-0.2401981-0.1953068-0.2401981-0.3515015v-4.1845989
			c0-0.6592064,0.5370998-1.1963005,1.1963062-1.1963005h3.6650009c0.6601906,0,1.1962929,0.5370941,1.1962929,1.1963005v1.9706993
			c0,0.6592007-0.5361023,1.1963005-1.1962929,1.1963005h-3.0459099l-1.1610909,1.2724991
			c-0.0723076,0.0791016-0.1739082,0.1219997-0.2774067,0.1219997
			C31.8119507,28.3133984,31.7660503,28.3055992,31.7211494,28.2880001z"/>
	</g>
	<g>
		<path fill="#ED8B24" d="M32.6381569,23.3085995c-0.2442055,0-0.4434052,0.1991997-0.4434052,0.4433002v3.2118988
			l0.6171989-0.6757984c0.0713005-0.0781002,0.1718979-0.1220016,0.2783012-0.1220016h3.2129059
			c0.244091,0,0.4423943-0.1991997,0.4423943-0.4433994v-1.9706993c0-0.2441006-0.1983032-0.4433002-0.4423943-0.4433002H32.6381569
			z"/>
	</g>
	<g>
		<path fill="#010101" d="M34.0717583,25.252882h-0.8691406c-0.2480469,0-0.4501953-0.2021484-0.4501953-0.4501953
			s0.2021484-0.4501953,0.4501953-0.4501953h0.8691406c0.2480469,0,0.4501953,0.2021484,0.4501953,0.4501953
			S34.3198051,25.252882,34.0717583,25.252882z"/>
	</g>
	<g>
		<path fill="#010101" d="M35.7895317,25.252882h-0.3632812c-0.2480469,0-0.4501953-0.2021484-0.4501953-0.4501953
			s0.2021484-0.4501953,0.4501953-0.4501953h0.3632812c0.2480469,0,0.4501953,0.2021484,0.4501953,0.4501953
			S36.0375786,25.252882,35.7895317,25.252882z"/>
	</g>
	<g>
		<path fill="#010101" d="M13.6068182,17.2784252c-0.1035004,0-0.2051001-0.0429001-0.2774076-0.1219997l-1.1610928-1.2725
			h-3.045907c-0.6601925,0-1.1962924-0.5370998-1.1962924-1.1962996v-1.9707003
			c0-0.6592054,0.5360999-1.1962996,1.1962924-1.1962996h3.665c0.6592073,0,1.1963072,0.5370941,1.1963072,1.1962996v4.1845999
			c0,0.1561947-0.0946999,0.2949009-0.2402,0.3514996C13.6986179,17.2706261,13.6527185,17.2784252,13.6068182,17.2784252z"/>
	</g>
	<g>
		<path fill="#ED8B24" d="M9.1615105,12.2736254c-0.244092,0-0.4423923,0.1992006-0.4423923,0.4433002v1.9707003
			c0,0.2441998,0.1983004,0.4433994,0.4423923,0.4433994h3.2129078c0.1063995,0,0.2069998,0.0439005,0.2783003,0.1220007
			l0.6171999,0.6757994v-3.2118998c0-0.2440996-0.1992006-0.4433002-0.443408-0.4433002H9.1615105z"/>
	</g>
	<g>
		<path fill="#010101" d="M12.262188,14.2177248H9.6474419c-0.2485352,0-0.4501953-0.2021484-0.4501953-0.4501953
			s0.2016602-0.4501953,0.4501953-0.4501953h2.6147461c0.2485352,0,0.4501953,0.2021484,0.4501953,0.4501953
			S12.5107231,14.2177248,12.262188,14.2177248z"/>
	</g>
</g>
</svg>
